#N canvas 163 47 1500 917 10;
#X obj 186 35 bng 15 250 50 0 empty empty empty 17 7 0 10 -262144 -1
-1;
#X msg 227 33 0;
#X obj 186 68 f;
#X obj 188 103 + 1;
#X floatatom 188 122 5 0 0 0 - - -, f 5;
#X obj 188 149 % 8;
#X obj 188 169 + 1;
#X floatatom 188 188 5 0 0 0 - - -, f 5;
#X obj 187 218 route 1 2 3 4 5 6 7 8;
#X msg 85 242 440 0.5;
#X msg 101 263 493.9 0.8;
#X msg 253 359 698.456 0.8;
#X obj 177 405 unpack f f;
#X floatatom 150 434 5 0 0 0 - - -, f 5;
#X floatatom 234 431 5 0 0 0 - - -, f 5;
#X msg 224 336 659.252 0.3;
#X msg 199 314 587.312 0.9;
#X msg 160 287 523.248 0.3;
#X msg 272 381 831.468 0.1;
#X msg 287 402 880 0.9;
#X obj 149 469 osc~;
#X obj 187 506 *~;
#X obj 204 563 dac~;
#X connect 0 0 2 0;
#X connect 1 0 2 1;
#X connect 2 0 3 0;
#X connect 3 0 4 0;
#X connect 4 0 5 0;
#X connect 4 0 2 1;
#X connect 5 0 6 0;
#X connect 6 0 7 0;
#X connect 7 0 8 0;
#X connect 8 0 9 0;
#X connect 8 1 10 0;
#X connect 8 2 17 0;
#X connect 8 3 16 0;
#X connect 8 4 15 0;
#X connect 8 5 11 0;
#X connect 8 6 18 0;
#X connect 8 7 19 0;
#X connect 9 0 12 0;
#X connect 10 0 12 0;
#X connect 11 0 12 0;
#X connect 12 0 13 0;
#X connect 12 1 14 0;
#X connect 13 0 20 0;
#X connect 14 0 21 1;
#X connect 15 0 12 0;
#X connect 16 0 12 0;
#X connect 17 0 12 0;
#X connect 18 0 12 0;
#X connect 19 0 12 0;
#X connect 20 0 21 0;
#X connect 21 0 22 0;
#X connect 21 0 22 1;
