#N canvas -7 0 748 908 10;
#X obj 128 40 metro 500;
#X obj 128 12 bng 15 250 50 0 empty empty empty 17 7 0 10 -262144 -1
-1;
#X obj 128 84 random 1000;
#X floatatom 128 123 5 0 0 0 - - -, f 5;
#X obj 129 305 osc~;
#X obj 129 389 dac~;
#X obj 129 332 *~ 0.8;
#X obj 162 183 line;
#X floatatom 162 214 5 0 0 0 - - -, f 5;
#X msg 162 151 \$1 500;
#X obj 257 110 tgl 15 0 empty empty empty 17 7 0 10 -262144 -1 -1 0
1;
#X floatatom 256 138 5 0 0 0 - - -, f 5;
#X obj 243 176 == 1;
#X obj 283 177 != 1;
#X obj 243 213 tgl 15 0 empty empty empty 17 7 0 10 -262144 -1 -1 0
1;
#X obj 285 213 tgl 15 0 empty empty empty 17 7 0 10 -262144 -1 -1 1
1;
#X obj 100 251 spigot;
#X obj 162 250 spigot;
#X floatatom 129 282 5 0 0 0 - - -, f 5;
#X connect 0 0 2 0;
#X connect 1 0 0 0;
#X connect 2 0 3 0;
#X connect 3 0 9 0;
#X connect 3 0 16 0;
#X connect 4 0 6 0;
#X connect 6 0 5 0;
#X connect 6 0 5 1;
#X connect 7 0 8 0;
#X connect 8 0 17 0;
#X connect 9 0 7 0;
#X connect 10 0 11 0;
#X connect 11 0 12 0;
#X connect 11 0 13 0;
#X connect 12 0 14 0;
#X connect 13 0 15 0;
#X connect 14 0 16 1;
#X connect 15 0 17 1;
#X connect 16 0 18 0;
#X connect 17 0 18 0;
#X connect 18 0 4 0;
