#N canvas 576 69 768 735 10;
#X obj 118 33 metro 2000;
#X obj 118 8 bng 15 250 50 0 empty empty empty 17 7 0 10 -262144 -1
-1;
#X obj 117 55 f;
#X msg 189 25 0;
#X obj 116 78 + 1;
#X floatatom 116 100 5 0 0 0 - - -, f 5;
#X msg 50 7 stop;
#X obj 115 121 % 2;
#X obj 115 148 sel 0;
#X obj 176 170 sel 1;
#X obj 195 289 osc~;
#X obj 196 346 dac~;
#X obj 194 317 *~ 0.8;
#X floatatom 115 255 5 0 0 0 - - -, f 5;
#X obj 115 230 + 700;
#X obj 115 203 random 200;
#X obj 199 203 random 200;
#X floatatom 198 251 5 0 0 0 - - -, f 5;
#X obj 198 231 + 400;
#X connect 0 0 2 0;
#X connect 1 0 0 0;
#X connect 1 0 3 0;
#X connect 2 0 4 0;
#X connect 3 0 2 1;
#X connect 4 0 2 1;
#X connect 4 0 5 0;
#X connect 5 0 7 0;
#X connect 6 0 0 0;
#X connect 7 0 8 0;
#X connect 8 0 15 0;
#X connect 8 1 9 0;
#X connect 9 0 16 0;
#X connect 10 0 12 0;
#X connect 12 0 11 0;
#X connect 12 0 11 1;
#X connect 13 0 10 0;
#X connect 14 0 13 0;
#X connect 15 0 14 0;
#X connect 16 0 18 0;
#X connect 17 0 10 0;
#X connect 18 0 17 0;
