#N canvas -8 -8 1500 917 10;
#X msg 180 11 60;
#X obj 129 78 expr 1000/($f1/60);
#X floatatom 129 113 5 0 0 0 - - -, f 5;
#X obj 104 180 metro;
#X obj 104 149 t b f;
#X obj 105 220 f 0;
#X obj 112 248 + 1;
#X floatatom 108 318 5 0 0 0 - - -, f 5;
#X msg 25 149 stop;
#X obj 109 351 sel 5;
#X obj 74 430 bng 15 250 50 0 empty empty empty 17 7 0 10 -262144 -1
-1;
#X obj 130 35 t f f;
#X msg 92 10 100;
#X obj 136 378 sel 10;
#X obj 136 427 bng 15 250 50 0 empty empty empty 17 7 0 10 -262144
-1 -1;
#X msg 171 178 0;
#X obj 111 280 t b f;
#X obj 276 507 *~;
#X obj 266 380 bng 15 250 50 0 empty empty empty 17 7 0 10 -262144
-1 -1;
#X obj 281 401 del 50;
#X msg 254 424 1;
#X msg 296 427 0;
#X obj 278 456 tgl 15 0 empty empty empty 17 7 0 10 -262144 -1 -1 0
1;
#X obj 275 546 dac~;
#X obj 201 477 osc~ 3000;
#X obj 136 403 del 600;
#X obj 73 380 del 1000;
#X connect 0 0 11 0;
#X connect 1 0 2 0;
#X connect 2 0 4 0;
#X connect 3 0 5 0;
#X connect 4 0 3 0;
#X connect 4 1 3 1;
#X connect 5 0 6 0;
#X connect 6 0 5 1;
#X connect 6 0 16 0;
#X connect 7 0 9 0;
#X connect 7 0 18 0;
#X connect 8 0 3 0;
#X connect 9 0 26 0;
#X connect 9 1 13 0;
#X connect 10 0 12 0;
#X connect 11 0 1 0;
#X connect 11 1 15 0;
#X connect 12 0 1 0;
#X connect 13 0 25 0;
#X connect 14 0 0 0;
#X connect 15 0 5 1;
#X connect 16 1 7 0;
#X connect 17 0 23 0;
#X connect 17 0 23 1;
#X connect 18 0 19 0;
#X connect 18 0 20 0;
#X connect 19 0 21 0;
#X connect 20 0 22 0;
#X connect 21 0 22 0;
#X connect 22 0 17 1;
#X connect 24 0 17 0;
#X connect 25 0 14 0;
#X connect 26 0 10 0;
