#N canvas -7 0 748 908 10;
#X msg 167 43 5 10;
#X obj 167 72 unpack f f;
#X obj 167 134 - 1;
#X obj 208 251 sel;
#X obj 152 171 f;
#X obj 152 198 + 1;
#X obj 152 228 t f f;
#X obj 209 284 tgl 15 0 empty empty empty 17 7 0 10 -262144 -1 -1 0
1;
#X obj 151 317 spigot;
#X obj 151 350 expr pow(3 \, $f1);
#X obj 151 380 print y;
#X obj 126 134 bng 15 250 50 0 empty empty empty 17 7 0 10 -262144
-1 -1;
#X connect 0 0 1 0;
#X connect 0 0 7 0;
#X connect 1 0 2 0;
#X connect 1 1 3 1;
#X connect 2 0 4 1;
#X connect 3 0 7 0;
#X connect 4 0 5 0;
#X connect 5 0 4 1;
#X connect 5 0 6 0;
#X connect 6 0 8 0;
#X connect 6 1 3 0;
#X connect 7 0 8 1;
#X connect 8 0 9 0;
#X connect 9 0 10 0;
#X connect 11 0 4 0;
