#N canvas 398 63 756 748 10;
#X obj 117 9 bng 15 250 50 0 empty empty empty 17 7 0 10 -262144 -1
-1;
#X obj 118 43 random;
#X floatatom 118 63 5 0 0 0 - - -, f 5;
#X floatatom 153 9 5 0 0 0 - - -, f 5;
#X obj 118 93 t b f;
#X obj 106 158 bng 15 250 50 0 empty empty empty 17 7 0 10 -262144
-1 -1;
#X obj 106 126 metro 1000;
#X obj 134 184 del 50;
#X obj 135 214 bng 15 250 50 0 empty empty empty 17 7 0 10 -262144
-1 -1;
#X msg 82 237 1;
#X msg 134 237 0;
#X obj 108 266 tgl 15 0 empty empty empty 17 7 0 10 -262144 -1 -1 0
1;
#X obj 21 264 osc~ 3000;
#X obj 22 304 *~;
#X obj 22 341 dac~;
#X connect 0 0 1 0;
#X connect 1 0 2 0;
#X connect 2 0 4 0;
#X connect 3 0 1 1;
#X connect 4 0 6 0;
#X connect 4 1 6 1;
#X connect 5 0 1 0;
#X connect 5 0 7 0;
#X connect 5 0 9 0;
#X connect 6 0 5 0;
#X connect 7 0 8 0;
#X connect 8 0 10 0;
#X connect 9 0 11 0;
#X connect 10 0 11 0;
#X connect 11 0 13 1;
#X connect 12 0 13 0;
#X connect 13 0 14 0;
#X connect 13 0 14 1;
