#N canvas 429 76 943 289 10;
#X floatatom 46 12 5 0 0 0 - - -, f 5;
#X floatatom 46 102 5 0 0 0 - - -, f 5;
#X obj 46 63 expr pow($f1 \, 2);
#X obj 176 63 expr pow($f1 \, 2+$f1);
#X floatatom 175 97 5 0 0 0 - - -, f 5;
#X obj 315 63 expr 1-pow(2 \, $f1);
#X floatatom 316 97 5 0 0 0 - - -, f 5;
#X connect 0 0 2 0;
#X connect 0 0 3 0;
#X connect 0 0 5 0;
#X connect 2 0 1 0;
#X connect 3 0 4 0;
#X connect 5 0 6 0;
