#N canvas 744 0 733 899.063 10;
#X msg 115 43 60 \, 84 2000;
#X obj 115 116 line;
#X floatatom 114 144 5 0 0 0 - - -, f 5;
#X obj 114 165 mtof;
#X floatatom 114 187 5 0 0 0 - - -, f 5;
#X obj 114 261 osc~;
#X obj 114 324 *~;
#X msg 161 291 0.7;
#X msg 193 291 0;
#X obj 172 371 dac~;
#X msg 246 43 261.6 \, 1046.5 2000;
#X obj 246 111 line;
#X floatatom 246 133 5 0 0 0 - - -, f 5;
#X obj 246 251 osc~;
#X obj 246 326 *~;
#X msg 267 290 0.7;
#X msg 299 290 0;
#X text 115 19 linear;
#X text 247 19 logarithmic;
#X connect 0 0 1 0;
#X connect 0 0 7 0;
#X connect 0 0 16 0;
#X connect 1 0 2 0;
#X connect 2 0 3 0;
#X connect 3 0 4 0;
#X connect 4 0 5 0;
#X connect 5 0 6 0;
#X connect 6 0 9 0;
#X connect 6 0 9 1;
#X connect 7 0 6 1;
#X connect 8 0 6 1;
#X connect 10 0 11 0;
#X connect 10 0 8 0;
#X connect 10 0 15 0;
#X connect 11 0 12 0;
#X connect 12 0 13 0;
#X connect 13 0 14 0;
#X connect 14 0 9 0;
#X connect 14 0 9 1;
#X connect 15 0 14 1;
#X connect 16 0 14 1;
