#N canvas 701 91 647 598.063 10;
#X msg 60 45 \; pd dsp 1;
#X obj 146 17 adc~;
#X floatatom 146 216 5 0 0 0 - - -, f 5;
#X obj 146 87 dbtorms;
#X obj 146 55 env~ 128;
#X obj 146 188 + 1000;
#X obj 146 255 osc~;
#X obj 227 380 dac~;
#X obj 146 124 * 10000;
#X obj 204 190 + 400;
#X floatatom 204 214 5 0 0 0 - - -, f 5;
#X obj 204 256 osc~;
#X obj 269 339 *~;
#X obj 403 191 vsl 15 128 0 1 0 0 empty empty empty 0 -9 0 10 -262144
-1 -1 3750 1;
#X msg 60 85 \; pd dsp 0;
#X floatatom 261 215 5 0 0 0 - - -, f 5;
#X obj 261 257 osc~;
#X obj 261 191 + 600;
#X obj 204 123 * 15000;
#X obj 261 123 * 20000;
#X floatatom 325 215 5 0 0 0 - - -, f 5;
#X obj 325 257 osc~;
#X obj 325 123 * 25000;
#X obj 325 191 + 800;
#X connect 1 0 4 0;
#X connect 2 0 6 0;
#X connect 3 0 8 0;
#X connect 3 0 18 0;
#X connect 3 0 19 0;
#X connect 3 0 22 0;
#X connect 4 0 3 0;
#X connect 5 0 2 0;
#X connect 6 0 12 0;
#X connect 8 0 5 0;
#X connect 9 0 10 0;
#X connect 10 0 11 0;
#X connect 11 0 12 0;
#X connect 12 0 7 0;
#X connect 12 0 7 1;
#X connect 13 0 12 1;
#X connect 15 0 16 0;
#X connect 16 0 12 0;
#X connect 17 0 15 0;
#X connect 18 0 9 0;
#X connect 19 0 17 0;
#X connect 20 0 21 0;
#X connect 21 0 12 0;
#X connect 22 0 23 0;
#X connect 23 0 20 0;
