#N canvas 220 139 727 583.063 10;
#X obj 51 106 f;
#X obj 65 15 bng 15 250 50 0 empty empty empty 17 7 0 10 -262144 -1
-1;
#X obj 51 141 + 0.5;
#X floatatom 51 193 5 0 0 0 - - -, f 5;
#X obj 51 214 mtof;
#X floatatom 51 236 5 0 0 0 - - -, f 5;
#X obj 51 257 osc~;
#X obj 51 343 dac~;
#X msg 145 69 72;
#X obj 51 298 *~ 0.7;
#X obj 51 168 - 0.5;
#X obj 161 128 f;
#X msg 190 96 1;
#X floatatom 161 202 5 0 0 0 - - -, f 5;
#X obj 161 150 + 1;
#X obj 161 172 - 1;
#X obj 160 253 bng 15 250 50 0 empty empty empty 17 7 0 10 -262144
-1 -1;
#X obj 51 69 metro 500;
#X obj 161 223 sel 24;
#X obj 65 42 t b b;
#X connect 0 0 2 0;
#X connect 1 0 19 0;
#X connect 2 0 0 1;
#X connect 2 0 10 0;
#X connect 3 0 4 0;
#X connect 4 0 5 0;
#X connect 5 0 6 0;
#X connect 6 0 9 0;
#X connect 8 0 0 1;
#X connect 8 0 12 0;
#X connect 9 0 7 0;
#X connect 9 0 7 1;
#X connect 10 0 3 0;
#X connect 11 0 14 0;
#X connect 12 0 11 1;
#X connect 13 0 18 0;
#X connect 14 0 11 1;
#X connect 14 0 15 0;
#X connect 15 0 13 0;
#X connect 16 0 8 0;
#X connect 17 0 0 0;
#X connect 17 0 11 0;
#X connect 18 0 16 0;
#X connect 19 0 17 0;
#X connect 19 1 8 0;
