#N canvas 452 80 879 680.063 10;
#X obj 161 61 metro 2000;
#X obj 161 26 bng 15 250 50 0 empty empty empty 17 7 0 10 -262144 -1
-1;
#X obj 207 320 dac~;
#N canvas 323 144 613 509.063 randosc 0;
#X obj 133 21 inlet;
#X obj 132 63 random 300;
#X obj 132 85 + 200;
#X floatatom 132 111 5 0 0 0 - - -, f 5;
#X obj 133 183 osc~;
#X obj 134 221 *~;
#X obj 222 61 random 100;
#X obj 222 83 / 100;
#X floatatom 221 144 5 0 0 0 - - -, f 5;
#X msg 221 166 \$1 20;
#X obj 220 193 line~;
#X obj 134 258 outlet~;
#X msg 133 134 \$1 500;
#X obj 133 156 line~;
#X connect 0 0 1 0;
#X connect 0 0 6 0;
#X connect 1 0 2 0;
#X connect 2 0 3 0;
#X connect 3 0 12 0;
#X connect 4 0 5 0;
#X connect 5 0 11 0;
#X connect 6 0 7 0;
#X connect 7 0 8 0;
#X connect 8 0 9 0;
#X connect 9 0 10 0;
#X connect 10 0 5 1;
#X connect 12 0 13 0;
#X connect 13 0 4 0;
#X restore 34 105 pd randosc;
#X obj 216 256 *~;
#X obj 336 163 hsl 128 15 0 1 0 0 empty empty empty -2 -8 0 10 -262144
-1 -1 3450 1;
#X obj 337 190 \$1 20;
#X obj 337 212 line~;
#N canvas 323 144 613 509.063 randosc 0;
#X obj 133 21 inlet;
#X obj 132 85 + 200;
#X floatatom 132 111 5 0 0 0 - - -, f 5;
#X obj 133 183 osc~;
#X obj 134 221 *~;
#X obj 222 61 random 100;
#X obj 222 83 / 100;
#X floatatom 221 144 5 0 0 0 - - -, f 5;
#X msg 221 166 \$1 20;
#X obj 220 193 line~;
#X obj 134 258 outlet~;
#X msg 133 134 \$1 500;
#X obj 133 156 line~;
#X obj 132 63 random 500;
#X connect 0 0 5 0;
#X connect 0 0 13 0;
#X connect 1 0 2 0;
#X connect 2 0 11 0;
#X connect 3 0 4 0;
#X connect 4 0 10 0;
#X connect 5 0 6 0;
#X connect 6 0 7 0;
#X connect 7 0 8 0;
#X connect 8 0 9 0;
#X connect 9 0 4 1;
#X connect 11 0 12 0;
#X connect 12 0 3 0;
#X connect 13 0 1 0;
#X restore 127 107 pd randosc;
#N canvas 323 144 613 509.063 randosc 0;
#X obj 133 21 inlet;
#X obj 132 85 + 200;
#X floatatom 132 111 5 0 0 0 - - -, f 5;
#X obj 133 183 osc~;
#X obj 134 221 *~;
#X obj 222 61 random 100;
#X obj 222 83 / 100;
#X floatatom 221 144 5 0 0 0 - - -, f 5;
#X msg 221 166 \$1 20;
#X obj 220 193 line~;
#X obj 134 258 outlet~;
#X msg 133 134 \$1 500;
#X obj 133 156 line~;
#X obj 132 63 random 1100;
#X connect 0 0 5 0;
#X connect 0 0 13 0;
#X connect 1 0 2 0;
#X connect 2 0 11 0;
#X connect 3 0 4 0;
#X connect 4 0 10 0;
#X connect 5 0 6 0;
#X connect 6 0 7 0;
#X connect 7 0 8 0;
#X connect 8 0 9 0;
#X connect 9 0 4 1;
#X connect 11 0 12 0;
#X connect 12 0 3 0;
#X connect 13 0 1 0;
#X restore 214 107 pd randosc;
#N canvas 323 144 613 509.063 randosc 0;
#X obj 133 21 inlet;
#X obj 132 85 + 200;
#X floatatom 132 111 5 0 0 0 - - -, f 5;
#X obj 133 183 osc~;
#X obj 134 221 *~;
#X obj 222 61 random 100;
#X obj 222 83 / 100;
#X floatatom 221 144 5 0 0 0 - - -, f 5;
#X msg 221 166 \$1 20;
#X obj 220 193 line~;
#X obj 134 258 outlet~;
#X msg 133 134 \$1 500;
#X obj 133 156 line~;
#X obj 132 63 random 1300;
#X connect 0 0 5 0;
#X connect 0 0 13 0;
#X connect 1 0 2 0;
#X connect 2 0 11 0;
#X connect 3 0 4 0;
#X connect 4 0 10 0;
#X connect 5 0 6 0;
#X connect 6 0 7 0;
#X connect 7 0 8 0;
#X connect 8 0 9 0;
#X connect 9 0 4 1;
#X connect 11 0 12 0;
#X connect 12 0 3 0;
#X connect 13 0 1 0;
#X restore 298 108 pd randosc;
#N canvas 323 144 613 509.063 randosc 0;
#X obj 133 21 inlet;
#X obj 132 85 + 200;
#X floatatom 132 111 5 0 0 0 - - -, f 5;
#X obj 133 183 osc~;
#X obj 134 221 *~;
#X obj 222 61 random 100;
#X obj 222 83 / 100;
#X floatatom 221 144 5 0 0 0 - - -, f 5;
#X msg 221 166 \$1 20;
#X obj 220 193 line~;
#X obj 134 258 outlet~;
#X msg 133 134 \$1 500;
#X obj 133 156 line~;
#X obj 132 63 random 3000;
#X connect 0 0 5 0;
#X connect 0 0 13 0;
#X connect 1 0 2 0;
#X connect 2 0 11 0;
#X connect 3 0 4 0;
#X connect 4 0 10 0;
#X connect 5 0 6 0;
#X connect 6 0 7 0;
#X connect 7 0 8 0;
#X connect 8 0 9 0;
#X connect 9 0 4 1;
#X connect 11 0 12 0;
#X connect 12 0 3 0;
#X connect 13 0 1 0;
#X restore 380 108 pd randosc;
#X connect 0 0 3 0;
#X connect 0 0 8 0;
#X connect 0 0 9 0;
#X connect 0 0 10 0;
#X connect 0 0 11 0;
#X connect 1 0 0 0;
#X connect 3 0 4 0;
#X connect 4 0 2 0;
#X connect 4 0 2 1;
#X connect 5 0 6 0;
#X connect 6 0 7 0;
#X connect 7 0 4 1;
#X connect 8 0 4 0;
#X connect 9 0 4 0;
#X connect 10 0 4 0;
#X connect 11 0 4 0;
