#N canvas 72 94 1195 798.031 10;
#X floatatom 168 27 5 0 0 0 Fundamental - -, f 5;
#X obj 439 34 bng 15 250 50 0 empty empty Random\ offset 17 7 0 10
-262144 -1 -1;
#X floatatom 250 271 5 0 0 0 - - -, f 5;
#X floatatom 250 314 5 0 0 0 - - -, f 5;
#X obj 250 292 + 1;
#X floatatom 250 357 5 0 0 0 - - -, f 5;
#X obj 250 378 osc~;
#X obj 253 604 dac~;
#X obj 250 249 / 100;
#X floatatom 24 29 5 0 0 0 - - -, f 5;
#X obj 24 60 s variance;
#X obj 250 205 r variance;
#X floatatom 396 268 5 0 0 0 - - -, f 5;
#X floatatom 396 311 5 0 0 0 - - -, f 5;
#X obj 396 246 / 100;
#X obj 396 202 r variance;
#X obj 396 289 + 2;
#X obj 396 332 *;
#X floatatom 396 354 5 0 0 0 - - -, f 5;
#X obj 396 375 osc~;
#X obj 249 557 *~;
#X msg 402 513 0.7;
#X msg 366 503 0;
#X obj 250 227 random;
#X obj 396 224 random;
#X obj 250 335 *;
#X obj 154 214 f;
#X obj 155 186 bng 15 250 50 0 empty empty empty 17 7 0 10 -262144
-1 -1;
#X floatatom 548 266 5 0 0 0 - - -, f 5;
#X floatatom 548 309 5 0 0 0 - - -, f 5;
#X obj 548 244 / 100;
#X obj 548 200 r variance;
#X obj 548 330 *;
#X floatatom 548 352 5 0 0 0 - - -, f 5;
#X obj 548 373 osc~;
#X obj 548 222 random;
#X obj 548 287 + 3;
#X floatatom 709 269 5 0 0 0 - - -, f 5;
#X floatatom 709 312 5 0 0 0 - - -, f 5;
#X obj 709 247 / 100;
#X obj 709 203 r variance;
#X obj 709 333 *;
#X floatatom 709 355 5 0 0 0 - - -, f 5;
#X obj 709 376 osc~;
#X obj 709 225 random;
#X obj 709 290 + 4;
#X obj 301 329 random 100;
#X obj 767 41 bng 15 250 50 0 empty empty Random\ colour 17 7 0 10
-262144 -1 -1;
#X floatatom 301 373 5 0 0 0 - - -, f 5;
#X obj 301 351 / 100;
#X obj 248 407 *~;
#X obj 442 332 random 100;
#X floatatom 442 376 5 0 0 0 - - -, f 5;
#X obj 442 354 / 100;
#X obj 397 403 *~;
#X obj 597 330 random 100;
#X floatatom 597 374 5 0 0 0 - - -, f 5;
#X obj 597 352 / 100;
#X obj 549 399 *~;
#X obj 756 331 random 100;
#X floatatom 756 375 5 0 0 0 - - -, f 5;
#X obj 756 353 / 100;
#X obj 709 401 *~;
#X connect 0 0 26 1;
#X connect 0 0 27 0;
#X connect 1 0 23 0;
#X connect 1 0 24 0;
#X connect 1 0 27 0;
#X connect 1 0 35 0;
#X connect 1 0 44 0;
#X connect 2 0 4 0;
#X connect 3 0 25 1;
#X connect 4 0 3 0;
#X connect 5 0 6 0;
#X connect 6 0 50 0;
#X connect 8 0 2 0;
#X connect 9 0 10 0;
#X connect 11 0 23 1;
#X connect 12 0 16 0;
#X connect 13 0 17 1;
#X connect 14 0 12 0;
#X connect 15 0 24 1;
#X connect 16 0 13 0;
#X connect 17 0 18 0;
#X connect 18 0 19 0;
#X connect 19 0 54 0;
#X connect 20 0 7 0;
#X connect 20 0 7 1;
#X connect 21 0 20 1;
#X connect 22 0 20 1;
#X connect 23 0 8 0;
#X connect 24 0 14 0;
#X connect 25 0 5 0;
#X connect 26 0 25 0;
#X connect 26 0 17 0;
#X connect 26 0 32 0;
#X connect 26 0 41 0;
#X connect 27 0 26 0;
#X connect 28 0 36 0;
#X connect 29 0 32 1;
#X connect 30 0 28 0;
#X connect 31 0 35 1;
#X connect 32 0 33 0;
#X connect 33 0 34 0;
#X connect 34 0 58 0;
#X connect 35 0 30 0;
#X connect 36 0 29 0;
#X connect 37 0 45 0;
#X connect 38 0 41 1;
#X connect 39 0 37 0;
#X connect 40 0 44 1;
#X connect 41 0 42 0;
#X connect 42 0 43 0;
#X connect 43 0 62 0;
#X connect 44 0 39 0;
#X connect 45 0 38 0;
#X connect 46 0 49 0;
#X connect 47 0 46 0;
#X connect 47 0 51 0;
#X connect 47 0 55 0;
#X connect 47 0 59 0;
#X connect 48 0 50 1;
#X connect 49 0 48 0;
#X connect 50 0 20 0;
#X connect 51 0 53 0;
#X connect 52 0 54 1;
#X connect 53 0 52 0;
#X connect 54 0 20 0;
#X connect 55 0 57 0;
#X connect 56 0 58 1;
#X connect 57 0 56 0;
#X connect 58 0 20 0;
#X connect 59 0 61 0;
#X connect 60 0 62 1;
#X connect 61 0 60 0;
#X connect 62 0 20 0;
