#N canvas -7 -7 1485 906 12;
#N canvas 708 490 357 288 o1 0;
#X obj 29 28 inlet;
#X obj 29 56 tgl 15 0 empty empty empty 0 -6 0 8 -262144 -1 -1 1 1
;
#X obj 29 78 metro 80;
#X obj 29 105 random 100;
#X obj 29 163 + 20;
#X obj 29 190 mtof;
#X obj 29 219 osc~;
#X obj 30 249 outlet~;
#X obj 88 24 r tempo;
#X floatatom 88 56 5 0 0 0 - - -, f 5;
#X obj 177 37 r ambitus;
#X floatatom 177 64 5 0 0 0 - - -, f 5;
#X obj 237 94 r offset;
#X floatatom 237 119 5 0 0 0 - - -, f 5;
#X connect 0 0 1 0;
#X connect 1 0 2 0;
#X connect 2 0 3 0;
#X connect 3 0 4 0;
#X connect 4 0 5 0;
#X connect 5 0 6 0;
#X connect 6 0 7 0;
#X connect 8 0 9 0;
#X connect 9 0 2 1;
#X connect 10 0 11 0;
#X connect 11 0 3 1;
#X connect 12 0 13 0;
#X connect 13 0 4 1;
#X restore -21 141 pd o1;
#X obj -21 121 tgl 15 0 empty empty empty 0 -6 0 8 -262144 -1 -1 1
1;
#X obj 173 273 *~;
#X obj 634 242 line~;
#X msg 634 218 \$1 20;
#X obj 637 196 hsl 128 15 0 1 0 0 empty empty empty -2 -6 0 8 -262144
-1 -1 650 1;
#X obj 258 754 dac~;
#N canvas 708 490 357 288 o1 0;
#X obj 29 28 inlet;
#X obj 29 56 tgl 15 0 empty empty empty 0 -6 0 8 -262144 -1 -1 1 1
;
#X obj 29 78 metro 80;
#X obj 29 105 random 100;
#X obj 29 163 + 20;
#X obj 29 190 mtof;
#X obj 29 219 osc~;
#X obj 30 249 outlet~;
#X obj 88 24 r tempo;
#X floatatom 88 56 5 0 0 0 - - -, f 5;
#X obj 177 37 r ambitus;
#X floatatom 177 64 5 0 0 0 - - -, f 5;
#X obj 237 94 r offset;
#X floatatom 237 119 5 0 0 0 - - -, f 5;
#X connect 0 0 1 0;
#X connect 1 0 2 0;
#X connect 2 0 3 0;
#X connect 3 0 4 0;
#X connect 4 0 5 0;
#X connect 5 0 6 0;
#X connect 6 0 7 0;
#X connect 8 0 9 0;
#X connect 9 0 2 1;
#X connect 10 0 11 0;
#X connect 11 0 3 1;
#X connect 12 0 13 0;
#X connect 13 0 4 1;
#X restore 23 141 pd o1;
#X obj 23 121 tgl 15 0 empty empty empty 0 -6 0 8 -262144 -1 -1 1 1
;
#N canvas 708 490 357 288 o1 0;
#X obj 29 28 inlet;
#X obj 29 56 tgl 15 0 empty empty empty 0 -6 0 8 -262144 -1 -1 1 1
;
#X obj 29 78 metro 80;
#X obj 29 105 random 100;
#X obj 29 163 + 20;
#X obj 29 190 mtof;
#X obj 29 219 osc~;
#X obj 30 249 outlet~;
#X obj 88 24 r tempo;
#X floatatom 88 56 5 0 0 0 - - -, f 5;
#X obj 177 37 r ambitus;
#X floatatom 177 64 5 0 0 0 - - -, f 5;
#X obj 237 94 r offset;
#X floatatom 237 119 5 0 0 0 - - -, f 5;
#X connect 0 0 1 0;
#X connect 1 0 2 0;
#X connect 2 0 3 0;
#X connect 3 0 4 0;
#X connect 4 0 5 0;
#X connect 5 0 6 0;
#X connect 6 0 7 0;
#X connect 8 0 9 0;
#X connect 9 0 2 1;
#X connect 10 0 11 0;
#X connect 11 0 3 1;
#X connect 12 0 13 0;
#X connect 13 0 4 1;
#X restore 67 141 pd o1;
#X obj 67 121 tgl 15 0 empty empty empty 0 -6 0 8 -262144 -1 -1 1 1
;
#N canvas 708 490 357 288 o1 0;
#X obj 29 28 inlet;
#X obj 29 56 tgl 15 0 empty empty empty 0 -6 0 8 -262144 -1 -1 1 1
;
#X obj 29 78 metro 80;
#X obj 29 105 random 100;
#X obj 29 163 + 20;
#X obj 29 190 mtof;
#X obj 29 219 osc~;
#X obj 30 249 outlet~;
#X obj 88 24 r tempo;
#X floatatom 88 56 5 0 0 0 - - -, f 5;
#X obj 177 37 r ambitus;
#X floatatom 177 64 5 0 0 0 - - -, f 5;
#X obj 237 94 r offset;
#X floatatom 237 119 5 0 0 0 - - -, f 5;
#X connect 0 0 1 0;
#X connect 1 0 2 0;
#X connect 2 0 3 0;
#X connect 3 0 4 0;
#X connect 4 0 5 0;
#X connect 5 0 6 0;
#X connect 6 0 7 0;
#X connect 8 0 9 0;
#X connect 9 0 2 1;
#X connect 10 0 11 0;
#X connect 11 0 3 1;
#X connect 12 0 13 0;
#X connect 13 0 4 1;
#X restore 111 141 pd o1;
#X obj 111 121 tgl 15 0 empty empty empty 0 -6 0 8 -262144 -1 -1 1
1;
#N canvas 708 490 357 288 o1 0;
#X obj 29 28 inlet;
#X obj 29 56 tgl 15 0 empty empty empty 0 -6 0 8 -262144 -1 -1 1 1
;
#X obj 29 78 metro 80;
#X obj 29 105 random 100;
#X obj 29 163 + 20;
#X obj 29 190 mtof;
#X obj 29 219 osc~;
#X obj 30 249 outlet~;
#X obj 88 24 r tempo;
#X floatatom 88 56 5 0 0 0 - - -, f 5;
#X obj 177 37 r ambitus;
#X floatatom 177 64 5 0 0 0 - - -, f 5;
#X obj 237 94 r offset;
#X floatatom 237 119 5 0 0 0 - - -, f 5;
#X connect 0 0 1 0;
#X connect 1 0 2 0;
#X connect 2 0 3 0;
#X connect 3 0 4 0;
#X connect 4 0 5 0;
#X connect 5 0 6 0;
#X connect 6 0 7 0;
#X connect 8 0 9 0;
#X connect 9 0 2 1;
#X connect 10 0 11 0;
#X connect 11 0 3 1;
#X connect 12 0 13 0;
#X connect 13 0 4 1;
#X restore 156 141 pd o1;
#X obj 156 121 tgl 15 0 empty empty empty 0 -6 0 8 -262144 -1 -1 1
1;
#N canvas 708 490 357 288 o1 0;
#X obj 29 28 inlet;
#X obj 29 56 tgl 15 0 empty empty empty 0 -6 0 8 -262144 -1 -1 1 1
;
#X obj 29 78 metro 80;
#X obj 29 105 random 100;
#X obj 29 163 + 20;
#X obj 29 190 mtof;
#X obj 29 219 osc~;
#X obj 30 249 outlet~;
#X obj 88 24 r tempo;
#X floatatom 88 56 5 0 0 0 - - -, f 5;
#X obj 177 37 r ambitus;
#X floatatom 177 64 5 0 0 0 - - -, f 5;
#X obj 237 94 r offset;
#X floatatom 237 119 5 0 0 0 - - -, f 5;
#X connect 0 0 1 0;
#X connect 1 0 2 0;
#X connect 2 0 3 0;
#X connect 3 0 4 0;
#X connect 4 0 5 0;
#X connect 5 0 6 0;
#X connect 6 0 7 0;
#X connect 8 0 9 0;
#X connect 9 0 2 1;
#X connect 10 0 11 0;
#X connect 11 0 3 1;
#X connect 12 0 13 0;
#X connect 13 0 4 1;
#X restore 200 141 pd o1;
#X obj 200 121 tgl 15 0 empty empty empty 0 -6 0 8 -262144 -1 -1 1
1;
#N canvas 708 490 357 288 o1 0;
#X obj 29 28 inlet;
#X obj 29 56 tgl 15 0 empty empty empty 0 -6 0 8 -262144 -1 -1 1 1
;
#X obj 29 78 metro 80;
#X obj 29 105 random 100;
#X obj 29 163 + 20;
#X obj 29 190 mtof;
#X obj 29 219 osc~;
#X obj 30 249 outlet~;
#X obj 88 24 r tempo;
#X floatatom 88 56 5 0 0 0 - - -, f 5;
#X obj 177 37 r ambitus;
#X floatatom 177 64 5 0 0 0 - - -, f 5;
#X obj 237 94 r offset;
#X floatatom 237 119 5 0 0 0 - - -, f 5;
#X connect 0 0 1 0;
#X connect 1 0 2 0;
#X connect 2 0 3 0;
#X connect 3 0 4 0;
#X connect 4 0 5 0;
#X connect 5 0 6 0;
#X connect 6 0 7 0;
#X connect 8 0 9 0;
#X connect 9 0 2 1;
#X connect 10 0 11 0;
#X connect 11 0 3 1;
#X connect 12 0 13 0;
#X connect 13 0 4 1;
#X restore 244 141 pd o1;
#X obj 244 121 tgl 15 0 empty empty empty 0 -6 0 8 -262144 -1 -1 1
1;
#N canvas 708 490 357 288 o1 0;
#X obj 29 28 inlet;
#X obj 29 56 tgl 15 0 empty empty empty 0 -6 0 8 -262144 -1 -1 1 1
;
#X obj 29 78 metro 80;
#X obj 29 105 random 100;
#X obj 29 163 + 20;
#X obj 29 190 mtof;
#X obj 29 219 osc~;
#X obj 30 249 outlet~;
#X obj 88 24 r tempo;
#X floatatom 88 56 5 0 0 0 - - -, f 5;
#X obj 177 37 r ambitus;
#X floatatom 177 64 5 0 0 0 - - -, f 5;
#X obj 237 94 r offset;
#X floatatom 237 119 5 0 0 0 - - -, f 5;
#X connect 0 0 1 0;
#X connect 1 0 2 0;
#X connect 2 0 3 0;
#X connect 3 0 4 0;
#X connect 4 0 5 0;
#X connect 5 0 6 0;
#X connect 6 0 7 0;
#X connect 8 0 9 0;
#X connect 9 0 2 1;
#X connect 10 0 11 0;
#X connect 11 0 3 1;
#X connect 12 0 13 0;
#X connect 13 0 4 1;
#X restore 288 141 pd o1;
#X obj 288 121 tgl 15 0 empty empty empty 0 -6 0 8 -262144 -1 -1 1
1;
#N canvas 708 490 357 288 o1 0;
#X obj 29 28 inlet;
#X obj 29 56 tgl 15 0 empty empty empty 0 -6 0 8 -262144 -1 -1 0 1
;
#X obj 29 78 metro 80;
#X obj 29 105 random 100;
#X obj 29 163 + 20;
#X obj 29 190 mtof;
#X obj 29 219 osc~;
#X obj 30 249 outlet~;
#X obj 88 24 r tempo;
#X floatatom 88 56 5 0 0 0 - - -, f 5;
#X obj 177 37 r ambitus;
#X floatatom 177 64 5 0 0 0 - - -, f 5;
#X obj 237 94 r offset;
#X floatatom 237 119 5 0 0 0 - - -, f 5;
#X connect 0 0 1 0;
#X connect 1 0 2 0;
#X connect 2 0 3 0;
#X connect 3 0 4 0;
#X connect 4 0 5 0;
#X connect 5 0 6 0;
#X connect 6 0 7 0;
#X connect 8 0 9 0;
#X connect 9 0 2 1;
#X connect 10 0 11 0;
#X connect 11 0 3 1;
#X connect 12 0 13 0;
#X connect 13 0 4 1;
#X restore 332 141 pd o1;
#X obj 332 121 tgl 15 0 empty empty empty 0 -6 0 8 -262144 -1 -1 0
1;
#N canvas 708 490 357 288 o1 0;
#X obj 29 28 inlet;
#X obj 29 56 tgl 15 0 empty empty empty 0 -6 0 8 -262144 -1 -1 0 1
;
#X obj 29 78 metro 80;
#X obj 29 105 random 100;
#X obj 29 163 + 20;
#X obj 29 190 mtof;
#X obj 29 219 osc~;
#X obj 30 249 outlet~;
#X obj 88 24 r tempo;
#X floatatom 88 56 5 0 0 0 - - -, f 5;
#X obj 177 37 r ambitus;
#X floatatom 177 64 5 0 0 0 - - -, f 5;
#X obj 237 94 r offset;
#X floatatom 237 119 5 0 0 0 - - -, f 5;
#X connect 0 0 1 0;
#X connect 1 0 2 0;
#X connect 2 0 3 0;
#X connect 3 0 4 0;
#X connect 4 0 5 0;
#X connect 5 0 6 0;
#X connect 6 0 7 0;
#X connect 8 0 9 0;
#X connect 9 0 2 1;
#X connect 10 0 11 0;
#X connect 11 0 3 1;
#X connect 12 0 13 0;
#X connect 13 0 4 1;
#X restore 376 141 pd o1;
#X obj 376 121 tgl 15 0 empty empty empty 0 -6 0 8 -262144 -1 -1 0
1;
#N canvas 708 490 357 288 o1 0;
#X obj 29 28 inlet;
#X obj 29 56 tgl 15 0 empty empty empty 0 -6 0 8 -262144 -1 -1 0 1
;
#X obj 29 78 metro 80;
#X obj 29 105 random 100;
#X obj 29 163 + 20;
#X obj 29 190 mtof;
#X obj 29 219 osc~;
#X obj 30 249 outlet~;
#X obj 88 24 r tempo;
#X floatatom 88 56 5 0 0 0 - - -, f 5;
#X obj 177 37 r ambitus;
#X floatatom 177 64 5 0 0 0 - - -, f 5;
#X obj 237 94 r offset;
#X floatatom 237 119 5 0 0 0 - - -, f 5;
#X connect 0 0 1 0;
#X connect 1 0 2 0;
#X connect 2 0 3 0;
#X connect 3 0 4 0;
#X connect 4 0 5 0;
#X connect 5 0 6 0;
#X connect 6 0 7 0;
#X connect 8 0 9 0;
#X connect 9 0 2 1;
#X connect 10 0 11 0;
#X connect 11 0 3 1;
#X connect 12 0 13 0;
#X connect 13 0 4 1;
#X restore 420 141 pd o1;
#X obj 420 121 tgl 15 0 empty empty empty 0 -6 0 8 -262144 -1 -1 0
1;
#N canvas 708 490 357 288 o1 0;
#X obj 29 28 inlet;
#X obj 29 56 tgl 15 0 empty empty empty 0 -6 0 8 -262144 -1 -1 0 1
;
#X obj 29 78 metro 80;
#X obj 29 105 random 100;
#X obj 29 163 + 20;
#X obj 29 190 mtof;
#X obj 29 219 osc~;
#X obj 30 249 outlet~;
#X obj 88 24 r tempo;
#X floatatom 88 56 5 0 0 0 - - -, f 5;
#X obj 177 37 r ambitus;
#X floatatom 177 64 5 0 0 0 - - -, f 5;
#X obj 237 94 r offset;
#X floatatom 237 119 5 0 0 0 - - -, f 5;
#X connect 0 0 1 0;
#X connect 1 0 2 0;
#X connect 2 0 3 0;
#X connect 3 0 4 0;
#X connect 4 0 5 0;
#X connect 5 0 6 0;
#X connect 6 0 7 0;
#X connect 8 0 9 0;
#X connect 9 0 2 1;
#X connect 10 0 11 0;
#X connect 11 0 3 1;
#X connect 12 0 13 0;
#X connect 13 0 4 1;
#X restore 464 141 pd o1;
#X obj 464 121 tgl 15 0 empty empty empty 0 -6 0 8 -262144 -1 -1 0
1;
#N canvas 708 490 357 288 o1 0;
#X obj 29 28 inlet;
#X obj 29 56 tgl 15 0 empty empty empty 0 -6 0 8 -262144 -1 -1 1 1
;
#X obj 29 78 metro 80;
#X obj 29 105 random 100;
#X obj 29 163 + 20;
#X obj 29 190 mtof;
#X obj 29 219 osc~;
#X obj 30 249 outlet~;
#X obj 88 24 r tempo;
#X floatatom 88 56 5 0 0 0 - - -, f 5;
#X obj 177 37 r ambitus;
#X floatatom 177 64 5 0 0 0 - - -, f 5;
#X obj 237 94 r offset;
#X floatatom 237 119 5 0 0 0 - - -, f 5;
#X connect 0 0 1 0;
#X connect 1 0 2 0;
#X connect 2 0 3 0;
#X connect 3 0 4 0;
#X connect 4 0 5 0;
#X connect 5 0 6 0;
#X connect 6 0 7 0;
#X connect 8 0 9 0;
#X connect 9 0 2 1;
#X connect 10 0 11 0;
#X connect 11 0 3 1;
#X connect 12 0 13 0;
#X connect 13 0 4 1;
#X restore 509 141 pd o1;
#X obj 509 121 tgl 15 0 empty empty empty 0 -6 0 8 -262144 -1 -1 1
1;
#N canvas 708 490 357 288 o1 0;
#X obj 29 28 inlet;
#X obj 29 56 tgl 15 0 empty empty empty 0 -6 0 8 -262144 -1 -1 1 1
;
#X obj 29 78 metro 80;
#X obj 29 105 random 100;
#X obj 29 163 + 20;
#X obj 29 190 mtof;
#X obj 29 219 osc~;
#X obj 30 249 outlet~;
#X obj 88 24 r tempo;
#X floatatom 88 56 5 0 0 0 - - -, f 5;
#X obj 177 37 r ambitus;
#X floatatom 177 64 5 0 0 0 - - -, f 5;
#X obj 237 94 r offset;
#X floatatom 237 119 5 0 0 0 - - -, f 5;
#X connect 0 0 1 0;
#X connect 1 0 2 0;
#X connect 2 0 3 0;
#X connect 3 0 4 0;
#X connect 4 0 5 0;
#X connect 5 0 6 0;
#X connect 6 0 7 0;
#X connect 8 0 9 0;
#X connect 9 0 2 1;
#X connect 10 0 11 0;
#X connect 11 0 3 1;
#X connect 12 0 13 0;
#X connect 13 0 4 1;
#X restore 553 141 pd o1;
#X obj 553 121 tgl 15 0 empty empty empty 0 -6 0 8 -262144 -1 -1 1
1;
#N canvas 708 490 357 288 o1 0;
#X obj 29 28 inlet;
#X obj 29 56 tgl 15 0 empty empty empty 0 -6 0 8 -262144 -1 -1 1 1
;
#X obj 29 78 metro 80;
#X obj 29 105 random 100;
#X obj 29 163 + 20;
#X obj 29 190 mtof;
#X obj 29 219 osc~;
#X obj 30 249 outlet~;
#X obj 88 24 r tempo;
#X floatatom 88 56 5 0 0 0 - - -, f 5;
#X obj 177 37 r ambitus;
#X floatatom 177 64 5 0 0 0 - - -, f 5;
#X obj 237 94 r offset;
#X floatatom 237 119 5 0 0 0 - - -, f 5;
#X connect 0 0 1 0;
#X connect 1 0 2 0;
#X connect 2 0 3 0;
#X connect 3 0 4 0;
#X connect 4 0 5 0;
#X connect 5 0 6 0;
#X connect 6 0 7 0;
#X connect 8 0 9 0;
#X connect 9 0 2 1;
#X connect 10 0 11 0;
#X connect 11 0 3 1;
#X connect 12 0 13 0;
#X connect 13 0 4 1;
#X restore 597 141 pd o1;
#X obj 597 121 tgl 15 0 empty empty empty 0 -6 0 8 -262144 -1 -1 1
1;
#N canvas 708 490 357 288 o1 0;
#X obj 29 28 inlet;
#X obj 29 56 tgl 15 0 empty empty empty 0 -6 0 8 -262144 -1 -1 1 1
;
#X obj 29 78 metro 80;
#X obj 29 105 random 100;
#X obj 29 163 + 20;
#X obj 29 190 mtof;
#X obj 29 219 osc~;
#X obj 30 249 outlet~;
#X obj 88 24 r tempo;
#X floatatom 88 56 5 0 0 0 - - -, f 5;
#X obj 177 37 r ambitus;
#X floatatom 177 64 5 0 0 0 - - -, f 5;
#X obj 237 94 r offset;
#X floatatom 237 119 5 0 0 0 - - -, f 5;
#X connect 0 0 1 0;
#X connect 1 0 2 0;
#X connect 2 0 3 0;
#X connect 3 0 4 0;
#X connect 4 0 5 0;
#X connect 5 0 6 0;
#X connect 6 0 7 0;
#X connect 8 0 9 0;
#X connect 9 0 2 1;
#X connect 10 0 11 0;
#X connect 11 0 3 1;
#X connect 12 0 13 0;
#X connect 13 0 4 1;
#X restore 641 141 pd o1;
#X obj 641 121 tgl 15 0 empty empty empty 0 -6 0 8 -262144 -1 -1 1
1;
#X obj 12 53 s tempo;
#X floatatom 12 30 5 0 0 0 - - -, f 5;
#X floatatom 74 30 5 0 0 0 - - -, f 5;
#X obj 74 53 s ambitus;
#X floatatom 152 30 5 0 0 0 - - -, f 5;
#X obj 152 53 s offset;
#X obj 295 54 s bpfreq;
#X obj 893 200 bng 15 250 50 0 empty empty empty 17 7 0 10 -262144
-1 -1;
#N canvas 78 265 450 369 f1 0;
#X obj 208 140 random 1000;
#X obj 279 101 r bpfreq;
#X floatatom 208 165 5 0 0 0 - - -, f 5;
#X obj 181 199 bp~ 0 50;
#X obj 117 93 inlet~;
#X obj 198 84 inlet;
#X obj 182 245 outlet~;
#X connect 0 0 2 0;
#X connect 1 0 0 1;
#X connect 2 0 3 1;
#X connect 3 0 6 0;
#X connect 4 0 3 0;
#X connect 5 0 0 0;
#X restore 177 331 pd f1;
#X obj 259 448 *~;
#X floatatom 293 409 5 0 0 0 - - -, f 5;
#X msg 294 18 10000;
#N canvas 78 265 450 369 f1 0;
#X obj 208 140 random 1000;
#X obj 279 101 r bpfreq;
#X floatatom 208 165 5 0 0 0 - - -, f 5;
#X obj 181 199 bp~ 0 50;
#X obj 117 93 inlet~;
#X obj 198 84 inlet;
#X obj 182 245 outlet~;
#X connect 0 0 2 0;
#X connect 1 0 0 1;
#X connect 2 0 3 1;
#X connect 3 0 6 0;
#X connect 4 0 3 0;
#X connect 5 0 0 0;
#X restore 238 332 pd f1;
#N canvas 78 265 450 369 f1 0;
#X obj 208 140 random 1000;
#X obj 279 101 r bpfreq;
#X floatatom 208 165 5 0 0 0 - - -, f 5;
#X obj 181 199 bp~ 0 50;
#X obj 117 93 inlet~;
#X obj 198 84 inlet;
#X obj 182 245 outlet~;
#X connect 0 0 2 0;
#X connect 1 0 0 1;
#X connect 2 0 3 1;
#X connect 3 0 6 0;
#X connect 4 0 3 0;
#X connect 5 0 0 0;
#X restore 310 335 pd f1;
#N canvas 78 265 450 369 f1 0;
#X obj 208 140 random 1000;
#X obj 279 101 r bpfreq;
#X floatatom 208 165 5 0 0 0 - - -, f 5;
#X obj 181 199 bp~ 0 50;
#X obj 117 93 inlet~;
#X obj 198 84 inlet;
#X obj 182 245 outlet~;
#X connect 0 0 2 0;
#X connect 1 0 0 1;
#X connect 2 0 3 1;
#X connect 3 0 6 0;
#X connect 4 0 3 0;
#X connect 5 0 0 0;
#X restore 372 336 pd f1;
#N canvas 78 265 450 369 f1 0;
#X obj 208 140 random 1000;
#X obj 279 101 r bpfreq;
#X floatatom 208 165 5 0 0 0 - - -, f 5;
#X obj 181 199 bp~ 0 50;
#X obj 117 93 inlet~;
#X obj 198 84 inlet;
#X obj 182 245 outlet~;
#X connect 0 0 2 0;
#X connect 1 0 0 1;
#X connect 2 0 3 1;
#X connect 3 0 6 0;
#X connect 4 0 3 0;
#X connect 5 0 0 0;
#X restore 434 335 pd f1;
#N canvas 78 265 450 369 f1 0;
#X obj 208 140 random 1000;
#X obj 279 101 r bpfreq;
#X floatatom 208 165 5 0 0 0 - - -, f 5;
#X obj 181 199 bp~ 0 50;
#X obj 117 93 inlet~;
#X obj 198 84 inlet;
#X obj 182 245 outlet~;
#X connect 0 0 2 0;
#X connect 1 0 0 1;
#X connect 2 0 3 1;
#X connect 3 0 6 0;
#X connect 4 0 3 0;
#X connect 5 0 0 0;
#X restore 497 334 pd f1;
#N canvas 78 265 450 369 f1 0;
#X obj 208 140 random 1000;
#X obj 279 101 r bpfreq;
#X floatatom 208 165 5 0 0 0 - - -, f 5;
#X obj 181 199 bp~ 0 50;
#X obj 117 93 inlet~;
#X obj 198 84 inlet;
#X obj 182 245 outlet~;
#X connect 0 0 2 0;
#X connect 1 0 0 1;
#X connect 2 0 3 1;
#X connect 3 0 6 0;
#X connect 4 0 3 0;
#X connect 5 0 0 0;
#X restore 557 332 pd f1;
#X obj 258 480 lop~;
#X obj 258 524 lop~;
#X obj 258 566 lop~;
#X obj 257 620 hip~;
#X obj 257 661 hip~;
#X obj 257 702 hip~;
#X obj 122 325 vsl 15 128 0 10000 0 0 empty empty empty 0 -9 0 10 -262144
-1 -1 1150 1;
#X obj 380 536 vsl 15 128 0 10000 0 0 empty empty empty 0 -9 0 10 -262144
-1 -1 350 1;
#X floatatom 122 463 5 0 0 0 - - -, f 5;
#X floatatom 380 674 5 0 0 0 - - -, f 5;
#N canvas 78 265 450 369 f1 0;
#X obj 208 140 random 1000;
#X obj 279 101 r bpfreq;
#X floatatom 208 165 5 0 0 0 - - -, f 5;
#X obj 181 199 bp~ 0 50;
#X obj 117 93 inlet~;
#X obj 198 84 inlet;
#X obj 182 245 outlet~;
#X connect 0 0 2 0;
#X connect 1 0 0 1;
#X connect 2 0 3 1;
#X connect 3 0 6 0;
#X connect 4 0 3 0;
#X connect 5 0 0 0;
#X restore 618 331 pd f1;
#X connect 0 0 2 0;
#X connect 1 0 0 0;
#X connect 2 0 45 0;
#X connect 2 0 49 0;
#X connect 2 0 50 0;
#X connect 2 0 51 0;
#X connect 2 0 52 0;
#X connect 2 0 53 0;
#X connect 2 0 54 0;
#X connect 2 0 65 0;
#X connect 3 0 2 1;
#X connect 4 0 3 0;
#X connect 5 0 4 0;
#X connect 7 0 2 0;
#X connect 8 0 7 0;
#X connect 9 0 2 0;
#X connect 10 0 9 0;
#X connect 11 0 2 0;
#X connect 12 0 11 0;
#X connect 13 0 2 0;
#X connect 14 0 13 0;
#X connect 15 0 2 0;
#X connect 16 0 15 0;
#X connect 17 0 2 0;
#X connect 18 0 17 0;
#X connect 19 0 2 0;
#X connect 20 0 19 0;
#X connect 21 0 2 0;
#X connect 22 0 21 0;
#X connect 23 0 2 0;
#X connect 24 0 23 0;
#X connect 25 0 2 0;
#X connect 26 0 25 0;
#X connect 27 0 2 0;
#X connect 28 0 27 0;
#X connect 29 0 2 0;
#X connect 30 0 29 0;
#X connect 31 0 2 0;
#X connect 32 0 31 0;
#X connect 33 0 2 0;
#X connect 34 0 33 0;
#X connect 35 0 2 0;
#X connect 36 0 35 0;
#X connect 38 0 37 0;
#X connect 39 0 40 0;
#X connect 41 0 42 0;
#X connect 44 0 45 1;
#X connect 44 0 49 1;
#X connect 44 0 50 1;
#X connect 44 0 51 1;
#X connect 44 0 52 1;
#X connect 44 0 53 1;
#X connect 44 0 54 1;
#X connect 44 0 65 1;
#X connect 45 0 46 0;
#X connect 46 0 55 0;
#X connect 47 0 46 1;
#X connect 48 0 43 0;
#X connect 49 0 46 0;
#X connect 50 0 46 0;
#X connect 51 0 46 0;
#X connect 52 0 46 0;
#X connect 53 0 46 0;
#X connect 54 0 46 0;
#X connect 55 0 56 0;
#X connect 56 0 57 0;
#X connect 57 0 58 0;
#X connect 58 0 59 0;
#X connect 59 0 60 0;
#X connect 60 0 6 0;
#X connect 60 0 6 1;
#X connect 61 0 55 1;
#X connect 61 0 56 1;
#X connect 61 0 57 1;
#X connect 61 0 63 0;
#X connect 62 0 58 1;
#X connect 62 0 59 1;
#X connect 62 0 60 1;
#X connect 62 0 64 0;
#X connect 65 0 46 0;
