#N canvas 377 128 1080 733 10;
#X obj 476 496 delwrite~ buff 1000;
#X obj 443 599 +~;
#X obj 498 544 sig~;
#X obj 498 566 vd~ buff;
#X floatatom 498 523 5 0 0 0 - - -, f 5;
#X obj 440 641 *~;
#X floatatom 494 614 5 0 0 0 - - -, f 5;
#X obj 440 690 dac~;
#X floatatom 252 45 5 0 0 0 - - -, f 5;
#X obj 41 162 * 1;
#X obj 40 197 osc~;
#X obj 41 229 *~;
#X obj 89 165 random 100;
#X obj 89 187 / 100;
#X obj 315 8 bng 15 250 50 0 empty empty empty 17 7 0 10 -262144 -1
-1;
#X obj 106 306 *~;
#X floatatom 134 267 5 0 0 0 - - -, f 5;
#X obj 196 198 osc~;
#X obj 197 230 *~;
#X obj 245 166 random 100;
#X obj 245 188 / 100;
#X obj 197 163 * 2;
#X obj 343 201 osc~;
#X obj 344 233 *~;
#X obj 392 169 random 100;
#X obj 392 191 / 100;
#X obj 344 166 * 3;
#X obj 490 203 osc~;
#X obj 491 235 *~;
#X obj 539 171 random 100;
#X obj 539 193 / 100;
#X obj 491 168 * 4;
#X obj 631 203 osc~;
#X obj 632 235 *~;
#X obj 680 171 random 100;
#X obj 680 193 / 100;
#X obj 632 168 * 5;
#X obj 761 204 osc~;
#X obj 762 236 *~;
#X obj 810 172 random 100;
#X obj 810 194 / 100;
#X obj 762 169 * 6;
#X obj 907 207 osc~;
#X obj 908 239 *~;
#X obj 956 175 random 100;
#X obj 956 197 / 100;
#X obj 908 172 * 6;
#X connect 1 0 5 0;
#X connect 2 0 3 0;
#X connect 3 0 1 1;
#X connect 4 0 2 0;
#X connect 5 0 7 0;
#X connect 5 0 7 1;
#X connect 6 0 5 1;
#X connect 8 0 9 0;
#X connect 8 0 21 0;
#X connect 8 0 26 0;
#X connect 8 0 31 0;
#X connect 8 0 36 0;
#X connect 8 0 41 0;
#X connect 8 0 46 0;
#X connect 9 0 10 0;
#X connect 10 0 11 0;
#X connect 11 0 15 0;
#X connect 12 0 13 0;
#X connect 13 0 11 1;
#X connect 14 0 12 0;
#X connect 14 0 19 0;
#X connect 14 0 24 0;
#X connect 14 0 29 0;
#X connect 14 0 34 0;
#X connect 14 0 39 0;
#X connect 14 0 44 0;
#X connect 15 0 0 0;
#X connect 15 0 1 0;
#X connect 16 0 15 1;
#X connect 17 0 18 0;
#X connect 18 0 15 0;
#X connect 19 0 20 0;
#X connect 20 0 18 1;
#X connect 21 0 17 0;
#X connect 22 0 23 0;
#X connect 23 0 15 0;
#X connect 24 0 25 0;
#X connect 25 0 23 1;
#X connect 26 0 22 0;
#X connect 27 0 28 0;
#X connect 28 0 15 0;
#X connect 29 0 30 0;
#X connect 30 0 28 1;
#X connect 31 0 27 0;
#X connect 32 0 33 0;
#X connect 33 0 15 0;
#X connect 34 0 35 0;
#X connect 35 0 33 1;
#X connect 36 0 32 0;
#X connect 37 0 38 0;
#X connect 38 0 15 0;
#X connect 39 0 40 0;
#X connect 40 0 38 1;
#X connect 41 0 37 0;
#X connect 42 0 43 0;
#X connect 43 0 15 0;
#X connect 44 0 45 0;
#X connect 45 0 43 1;
#X connect 46 0 42 0;
