#N canvas -7 -7 1485 906.031 10;
#X obj 102 111 adc~;
#X obj 102 148 env~;
#X obj 102 227 vu 15 120 empty empty -1 -8 0 10 -66577 -1 1 0;
#X obj 102 185 - 100;
#X obj 277 13 tgl 15 0 empty empty empty 17 7 0 10 -262144 -1 -1 0
1;
#X obj 276 122 timer;
#X obj 277 42 sel 1;
#X floatatom 276 155 8 0 0 0 - - -, f 8;
#X obj 304 92 bng 15 250 50 0 empty empty empty 17 7 0 10 -262144 -1
-1;
#N canvas 0 0 450 300 (subpatch) 0;
#X array buffer 68096 float 0 black black;
#X coords 0 1 68095 -1 200 140 1;
#X restore 620 100 graph;
#X obj 167 185 tabwrite~ buffer;
#X msg 231 137 stop;
#X msg 364 117 \; buffer const 0;
#X text 365 93 Reset recording buffer;
#X floatatom 277 222 8 0 0 0 - - -, f 8;
#X obj 277 182 expr ($f1/1000)*44100;
#X text 328 221 samples;
#X obj 335 92 bng 15 250 50 0 empty empty empty 17 7 0 10 -262144 -1
-1;
#X msg 367 303 \; buffer resize \$1;
#X msg 463 117 \; buffer resize 441000;
#X obj 277 259 t b f;
#X msg 256 303 \; buffer normalize;
#X obj 396 636 *~ 0.8;
#X obj 397 673 dac~;
#X obj 619 245 hsl 196 17 0 1 0 0 empty empty empty -2 -8 0 10 -262144
-1 -1 0 1;
#X obj 574 361 phasor~;
#X obj 544 208 / 1000;
#X floatatom 542 295 5 0 0 0 - - -, f 5;
#X obj 536 553 snapshot~;
#X obj 511 361 metro 20;
#X floatatom 536 598 5 0 0 0 - - -, f 5;
#X obj 541 263 expr 1/$f1;
#X obj 397 532 *~;
#X msg 644 302 0;
#X obj 723 335 hsl 128 15 0 1 0 0 empty empty empty -2 -8 0 10 -262144
-1 -1 0 1;
#X obj 724 303 hsl 128 15 0 1 0 0 empty empty empty -2 -8 0 10 -262144
-1 -1 0 1;
#X floatatom 724 375 5 0 0 0 - - -, f 5;
#X obj 677 334 t b f;
#X obj 725 407 -;
#X floatatom 725 429 5 0 0 0 - - -, f 5;
#X text 767 428 length mult;
#X obj 442 454 *~;
#X obj 441 499 +~;
#X obj 490 228 bng 15 250 50 0 empty empty empty 17 7 0 10 -262144
-1 -1;
#X obj 543 236 *;
#X obj 726 467 t b f;
#X floatatom 887 515 5 0 0 0 - - -, f 5;
#X obj 563 325 *;
#X obj 887 536 t b f;
#X obj 396 614 tabread4~ buffer;
#X obj 932 36 bng 15 250 50 0 empty empty empty 17 7 0 10 -262144 -1
-1;
#X obj 932 56 openpanel;
#X msg 932 78 read -resize \$1 buffer;
#X obj 932 100 soundfiler;
#X floatatom 932 122 8 0 0 0 - - -, f 8;
#X text 991 123 samples;
#X floatatom 932 177 6 0 0 0 - - -, f 6;
#X obj 887 110 bng 15 250 50 0 empty empty empty 17 7 0 10 -262144
-1 -1;
#X obj 932 150 expr ($f1/44100)*1000;
#X text 927 515 Playback speed;
#X connect 0 0 1 0;
#X connect 0 0 10 0;
#X connect 0 1 10 0;
#X connect 1 0 3 0;
#X connect 3 0 2 0;
#X connect 4 0 6 0;
#X connect 5 0 7 0;
#X connect 6 0 10 0;
#X connect 6 0 5 0;
#X connect 6 0 17 0;
#X connect 6 1 8 0;
#X connect 7 0 15 0;
#X connect 7 0 26 0;
#X connect 8 0 11 0;
#X connect 8 0 5 1;
#X connect 11 0 10 0;
#X connect 14 0 20 0;
#X connect 14 0 32 1;
#X connect 15 0 14 0;
#X connect 17 0 12 0;
#X connect 17 0 19 0;
#X connect 20 0 21 0;
#X connect 20 1 18 0;
#X connect 22 0 23 0;
#X connect 22 0 23 1;
#X connect 25 0 41 0;
#X connect 26 0 44 0;
#X connect 27 0 47 0;
#X connect 28 0 30 0;
#X connect 29 0 28 0;
#X connect 30 0 24 0;
#X connect 31 0 27 0;
#X connect 32 0 49 0;
#X connect 33 0 25 0;
#X connect 34 0 36 0;
#X connect 35 0 37 0;
#X connect 36 0 38 0;
#X connect 37 0 36 0;
#X connect 37 1 38 1;
#X connect 37 1 42 1;
#X connect 38 0 39 0;
#X connect 39 0 41 1;
#X connect 39 0 45 0;
#X connect 41 0 42 0;
#X connect 42 0 32 0;
#X connect 42 0 28 0;
#X connect 43 0 27 0;
#X connect 44 0 31 0;
#X connect 45 0 7 0;
#X connect 45 1 44 1;
#X connect 46 0 48 0;
#X connect 47 0 25 0;
#X connect 47 0 29 0;
#X connect 48 0 27 0;
#X connect 48 1 47 1;
#X connect 49 0 22 0;
#X connect 50 0 51 0;
#X connect 51 0 52 0;
#X connect 52 0 53 0;
#X connect 53 0 54 0;
#X connect 54 0 58 0;
#X connect 56 0 7 0;
#X connect 57 0 54 0;
#X connect 58 0 56 0;
