#N canvas 644 126 734 767.031 10;
#X floatatom 240 59 5 0 0 0 - - -, f 5;
#X obj 240 80 expr 1000/$f1;
#X floatatom 240 102 5 0 0 0 - - -, f 5;
#X obj 94 88 bng 15 250 50 0 empty empty empty 17 7 0 10 -262144 -1
-1;
#X obj 149 159 del;
#X msg 149 207 0;
#X msg 88 211 1;
#X obj 12 172 noise~;
#X obj 73 248 *~;
#X obj 240 138 vd~ buffer 100;
#X obj 53 383 delwrite~ buffer 1000;
#X obj 11 482 table buffer;
#X obj 245 646 dac~;
#X obj 287 209 *~ 0.5;
#X obj 346 176 z~ 1;
#X obj 344 207 *~ 0.5;
#X obj 326 244 +~;
#X obj 325 298 *~ 0.99;
#X floatatom 359 264 5 0 0 0 - - -, f 5;
#X obj 53 417 delwrite~ bufftex 10000;
#X obj 10 508 table bufftex;
#X floatatom 250 401 5 0 0 0 - - -, f 5;
#X obj 250 438 sig~;
#X obj 250 477 vd~ bufftex;
#X obj 248 528 *~;
#X floatatom 283 504 5 0 0 0 - - -, f 5;
#X obj 246 579 *~;
#X floatatom 630 548 5 0 0 0 - - -, f 5;
#X obj 246 613 hip~ 5;
#X floatatom 348 402 5 0 0 0 - - -, f 5;
#X obj 348 439 sig~;
#X obj 348 478 vd~ bufftex;
#X obj 346 529 *~;
#X floatatom 381 505 5 0 0 0 - - -, f 5;
#X floatatom 444 409 5 0 0 0 - - -, f 5;
#X obj 444 446 sig~;
#X obj 444 485 vd~ bufftex;
#X obj 442 536 *~;
#X floatatom 477 512 5 0 0 0 - - -, f 5;
#X floatatom 533 408 5 0 0 0 - - -, f 5;
#X obj 533 445 sig~;
#X obj 533 484 vd~ bufftex;
#X obj 531 535 *~;
#X floatatom 566 511 5 0 0 0 - - -, f 5;
#X connect 0 0 1 0;
#X connect 1 0 2 0;
#X connect 2 0 4 1;
#X connect 2 0 9 0;
#X connect 3 0 4 0;
#X connect 3 0 6 0;
#X connect 4 0 5 0;
#X connect 5 0 8 1;
#X connect 6 0 8 1;
#X connect 7 0 8 0;
#X connect 8 0 10 0;
#X connect 9 0 13 0;
#X connect 9 0 14 0;
#X connect 13 0 16 0;
#X connect 14 0 15 0;
#X connect 15 0 16 1;
#X connect 16 0 17 0;
#X connect 17 0 10 0;
#X connect 17 0 19 0;
#X connect 18 0 17 1;
#X connect 21 0 22 0;
#X connect 22 0 23 0;
#X connect 23 0 24 0;
#X connect 24 0 26 0;
#X connect 25 0 24 1;
#X connect 26 0 28 0;
#X connect 26 0 19 0;
#X connect 27 0 26 1;
#X connect 28 0 12 0;
#X connect 28 0 12 1;
#X connect 29 0 30 0;
#X connect 30 0 31 0;
#X connect 31 0 32 0;
#X connect 32 0 26 0;
#X connect 33 0 32 1;
#X connect 34 0 35 0;
#X connect 35 0 36 0;
#X connect 36 0 37 0;
#X connect 37 0 26 0;
#X connect 38 0 37 1;
#X connect 39 0 40 0;
#X connect 40 0 41 0;
#X connect 41 0 42 0;
#X connect 42 0 26 0;
#X connect 43 0 42 1;
