#N canvas 642 176 730 499 10;
#N canvas 0 0 450 300 (subpatch) 0;
#X array buff 1000 float 0 black black;
#X coords 0 1 999 -1 200 140 1;
#X restore 18 347 graph;
#X obj 307 457 dac~;
#X obj 350 359 tabwrite~ buff;
#X obj 349 308 bng 15 250 50 0 empty empty empty 17 7 0 10 -262144
-1 -1;
#X obj 193 65 noise~;
#X obj 264 63 metro;
#X floatatom 295 33 5 0 0 0 - - -, f 5;
#X obj 264 22 bng 15 250 50 0 empty empty empty 17 7 0 10 -262144 -1
-1;
#X obj 263 94 snapshot~;
#X floatatom 210 132 5 0 0 0 - - -, f 5;
#X obj 222 271 phasor~;
#X obj 109 219 line;
#X floatatom 109 241 5 0 0 0 - - -, f 5;
#X floatatom 213 188 5 0 0 0 - - -, f 5;
#X obj 109 168 pack f f;
#X obj 222 308 -~ 0.5;
#X obj 305 413 cos~;
#X obj 108 132 abs;
#X obj 348 181 metro 500;
#X obj 350 125 bng 15 250 50 0 empty empty empty 17 7 0 10 -262144
-1 -1;
#X connect 3 0 2 0;
#X connect 4 0 8 0;
#X connect 5 0 8 0;
#X connect 6 0 5 1;
#X connect 6 0 14 1;
#X connect 7 0 5 0;
#X connect 8 0 9 0;
#X connect 9 0 17 0;
#X connect 10 0 15 0;
#X connect 11 0 12 0;
#X connect 12 0 10 1;
#X connect 13 0 10 0;
#X connect 14 0 11 0;
#X connect 15 0 16 0;
#X connect 16 0 2 0;
#X connect 16 0 1 0;
#X connect 16 0 1 1;
#X connect 17 0 14 0;
#X connect 18 0 3 0;
#X connect 19 0 18 0;
