#N canvas -7 -7 1485 906.031 12;
#N canvas 0 0 450 300 (subpatch) 0;
#X array array1 100 float 0 black black;
#X coords 0 1 99 -1 200 140 1;
#X restore 727 -4 graph;
#X obj 161 727 tabwrite array1;
#X obj 283 656 f;
#X obj 283 682 + 1;
#X msg 302 632 -1;
#X obj 141 212 random 100;
#X obj 168 307 f;
#X obj 141 338 -;
#X floatatom 141 237 5 0 0 0 - - -, f 5;
#X obj 397 23 bng 15 250 50 0 empty empty empty 0 -6 0 8 -262144 -1
-1;
#X obj 141 392 abs;
#X obj 204 276 ii 50;
#X obj 133 559 -;
#X obj 124 509 f;
#X floatatom 141 598 5 0 0 0 - - -, f 5;
#X floatatom 223 240 5 0 0 0 - - -, f 5;
#X obj 36 439 bng 15 250 50 0 empty empty empty 0 -6 0 8 -262144 -1
-1;
#X obj 141 366 t f f;
#X floatatom 240 445 5 0 0 0 - - -, f 5;
#X obj 172 531 *;
#X obj 240 466 sel 0;
#X msg 206 491 -1;
#X obj 131 262 t b f b;
#X obj 108 390 f;
#X obj 241 409 < 0;
#X obj 144 632 t f b;
#X obj 398 48 t b b;
#X obj 145 659 * 0.02;
#X obj 138 689 - 1;
#X floatatom 805 204 5 0 0 0 - - -, f 5;
#X obj 805 234 phasor~;
#X obj 805 263 *~ 100;
#X obj 804 299 tabread4~ array1;
#X obj 804 330 *~ 0.6;
#X obj 804 376 *~;
#X obj 830 358 tgl 15 0 empty empty empty 0 -6 0 8 -262144 -1 -1 0
1;
#X obj 804 412 dac~;
#X text 724 137 Array has 100 Points;
#X text 854 357 listen;
#X obj 441 221 f;
#X obj 441 252 + 1;
#X msg 487 169 0;
#X obj 437 360 t b b;
#X obj 241 153 t b b;
#X floatatom 488 646 5 0 0 0 - - -, f 5;
#X obj 168 455 / 4;
#X obj 235 112 Uzi 20;
#X obj 442 320 sel 4;
#X floatatom 499 267 5 0 0 0 - - -, f 5;
#X floatatom 278 45 5 0 0 0 - - -, f 5;
#X connect 2 0 3 0;
#X connect 3 0 2 1;
#X connect 3 0 1 1;
#X connect 3 0 44 0;
#X connect 4 0 2 1;
#X connect 5 0 8 0;
#X connect 6 0 7 1;
#X connect 6 0 23 1;
#X connect 6 0 14 0;
#X connect 7 0 17 0;
#X connect 8 0 22 0;
#X connect 9 0 26 0;
#X connect 10 0 45 0;
#X connect 11 0 6 1;
#X connect 12 0 13 1;
#X connect 12 0 14 0;
#X connect 13 0 12 0;
#X connect 14 0 25 0;
#X connect 15 0 6 1;
#X connect 16 0 13 0;
#X connect 17 0 10 0;
#X connect 17 1 24 0;
#X connect 18 0 20 0;
#X connect 19 0 12 1;
#X connect 20 0 21 0;
#X connect 20 1 19 1;
#X connect 21 0 19 1;
#X connect 22 0 23 0;
#X connect 22 1 6 1;
#X connect 22 1 7 0;
#X connect 22 2 6 0;
#X connect 23 0 13 0;
#X connect 24 0 18 0;
#X connect 25 0 27 0;
#X connect 25 1 2 0;
#X connect 26 0 46 0;
#X connect 26 1 4 0;
#X connect 27 0 28 0;
#X connect 28 0 1 0;
#X connect 29 0 30 0;
#X connect 30 0 31 0;
#X connect 31 0 32 0;
#X connect 32 0 33 0;
#X connect 33 0 34 0;
#X connect 34 0 36 0;
#X connect 34 0 36 1;
#X connect 35 0 34 1;
#X connect 39 0 40 0;
#X connect 40 0 39 1;
#X connect 40 0 47 0;
#X connect 41 0 39 1;
#X connect 42 0 39 0;
#X connect 42 1 16 0;
#X connect 43 0 39 0;
#X connect 43 1 5 0;
#X connect 43 1 41 0;
#X connect 45 0 19 0;
#X connect 46 0 43 0;
#X connect 47 1 42 0;
#X connect 48 0 47 1;
#X connect 48 0 45 1;
#X connect 49 0 46 1;
