#N canvas 473 57 733 893.031 10;
#X msg 12 10 \; pd dsp 1;
#X floatatom 89 132 5 0 0 0 - - -, f 5;
#X obj 221 394 *~;
#X obj 272 440 *~;
#X floatatom 310 411 5 0 0 0 - - -, f 5;
#X obj 269 531 dac~;
#X msg 13 46 \; pd dsp 0;
#X obj 31 184 phasor~;
#X obj 271 473 hip~ 5;
#X obj 256 181 osc~ 1;
#X floatatom 257 140 5 0 0 0 - - -, f 5;
#X obj 300 227 *~ 140;
#X floatatom 347 194 5 0 0 0 - - -, f 5;
#X obj 259 276 +~;
#X floatatom 215 230 5 0 0 0 - - -, f 5;
#X obj 267 315 osc~;
#X connect 1 0 7 0;
#X connect 2 0 3 0;
#X connect 3 0 8 0;
#X connect 4 0 3 1;
#X connect 7 0 2 0;
#X connect 8 0 5 0;
#X connect 8 0 5 1;
#X connect 9 0 11 0;
#X connect 10 0 9 0;
#X connect 11 0 13 1;
#X connect 12 0 11 1;
#X connect 13 0 15 0;
#X connect 14 0 13 0;
#X connect 15 0 2 1;
