#N canvas -7 -7 1485 906.031 10;
#X obj 993 38 cnv 15 199 265 empty empty empty 20 12 0 14 -233017 -66577
0;
#N canvas 0 0 450 300 (subpatch) 0;
#X array array1 55424 float 0 black black;
#X coords 0 1 55423 -1 200 140 1;
#X restore 991 325 graph;
#X obj 1008 113 soundfiler;
#X obj 1008 69 openpanel;
#X floatatom 1008 135 5 0 0 0 - - -, f 5;
#X msg 1008 91 read -resize \$1 array1;
#X obj 1008 49 bng 15 250 50 0 empty empty empty 17 7 0 10 -262144
-1 -1;
#X obj 1008 156 expr 44100/$f1;
#X obj 1008 178 phasor~;
#X obj 1008 200 *~;
#X text 1082 278 main indicator;
#N canvas 396 115 450 323 grain 0;
#X obj 244 374 tabread4~ array1;
#X obj 356 473 *~;
#X obj 349 297 samphold~;
#X obj 243 116 phasor~;
#X obj 243 171 *~;
#X text 393 44 window size;
#X obj 244 341 +~;
#X obj 281 426 *~;
#X obj 477 382 tabread4~ array1;
#X obj 677 296 samphold~;
#X obj 476 188 *~;
#X obj 477 358 +~;
#X obj 539 442 *~;
#X obj 471 94 +~ 0.5;
#X obj 471 116 wrap~;
#N canvas 908 433 450 392 hann 0;
#X obj 171 37 inlet~;
#X obj 253 45 inlet;
#X obj 155 320 outlet~;
#X obj 268 156 /~;
#X obj 270 184 cos~;
#X obj 227 270 *~ 0.5;
#X obj 187 177 sig~ 1;
#X obj 232 227 -~;
#X connect 0 0 3 0;
#X connect 1 0 3 1;
#X connect 3 0 4 0;
#X connect 4 0 7 1;
#X connect 5 0 2 0;
#X connect 6 0 7 0;
#X connect 7 0 5 0;
#X restore 301 269 pd hann;
#N canvas 908 433 450 392 hann 0;
#X obj 171 37 inlet~;
#X obj 253 45 inlet;
#X obj 155 320 outlet~;
#X obj 268 156 /~;
#X obj 270 184 cos~;
#X obj 227 270 *~ 0.5;
#X obj 187 177 sig~ 1;
#X obj 232 227 -~;
#X connect 0 0 3 0;
#X connect 1 0 3 1;
#X connect 3 0 4 0;
#X connect 4 0 7 1;
#X connect 5 0 2 0;
#X connect 6 0 7 0;
#X connect 7 0 5 0;
#X restore 550 277 pd hann;
#X obj 245 62 inlet;
#X obj 353 44 inlet;
#X obj 373 387 inlet;
#X obj 582 107 inlet~;
#X obj 363 529 outlet~;
#X connect 0 0 7 0;
#X connect 1 0 21 0;
#X connect 2 0 6 1;
#X connect 3 0 4 0;
#X connect 3 0 2 1;
#X connect 3 0 13 0;
#X connect 4 0 6 0;
#X connect 4 0 15 0;
#X connect 6 0 0 0;
#X connect 7 0 1 0;
#X connect 8 0 12 0;
#X connect 9 0 11 1;
#X connect 10 0 11 0;
#X connect 10 0 16 0;
#X connect 11 0 8 0;
#X connect 12 0 1 0;
#X connect 13 0 14 0;
#X connect 14 0 10 0;
#X connect 14 0 9 1;
#X connect 15 0 7 1;
#X connect 16 0 12 1;
#X connect 17 0 3 0;
#X connect 18 0 4 1;
#X connect 18 0 15 1;
#X connect 18 0 16 1;
#X connect 18 0 10 1;
#X connect 19 0 1 1;
#X connect 20 0 2 0;
#X connect 20 0 9 0;
#X restore 886 460 pd grain;
#X floatatom 542 83 5 0 0 0 - - -, f 5;
#X obj 757 535 dac~;
#X floatatom 866 390 5 0 0 0 - - -, f 5;
#N canvas 396 115 450 323 grain 0;
#X obj 244 374 tabread4~ array1;
#X obj 356 473 *~;
#X obj 349 297 samphold~;
#X obj 243 116 phasor~;
#X obj 243 171 *~;
#X text 393 44 window size;
#X obj 244 341 +~;
#X obj 281 426 *~;
#X obj 477 382 tabread4~ array1;
#X obj 677 296 samphold~;
#X obj 476 188 *~;
#X obj 477 358 +~;
#X obj 539 442 *~;
#X obj 471 94 +~ 0.5;
#X obj 471 116 wrap~;
#N canvas 908 433 450 392 hann 0;
#X obj 171 37 inlet~;
#X obj 253 45 inlet;
#X obj 155 320 outlet~;
#X obj 268 156 /~;
#X obj 270 184 cos~;
#X obj 227 270 *~ 0.5;
#X obj 187 177 sig~ 1;
#X obj 232 227 -~;
#X connect 0 0 3 0;
#X connect 1 0 3 1;
#X connect 3 0 4 0;
#X connect 4 0 7 1;
#X connect 5 0 2 0;
#X connect 6 0 7 0;
#X connect 7 0 5 0;
#X restore 301 269 pd hann;
#N canvas 908 433 450 392 hann 0;
#X obj 171 37 inlet~;
#X obj 253 45 inlet;
#X obj 155 320 outlet~;
#X obj 268 156 /~;
#X obj 270 184 cos~;
#X obj 227 270 *~ 0.5;
#X obj 187 177 sig~ 1;
#X obj 232 227 -~;
#X connect 0 0 3 0;
#X connect 1 0 3 1;
#X connect 3 0 4 0;
#X connect 4 0 7 1;
#X connect 5 0 2 0;
#X connect 6 0 7 0;
#X connect 7 0 5 0;
#X restore 550 277 pd hann;
#X obj 245 62 inlet;
#X obj 353 44 inlet;
#X obj 373 387 inlet;
#X obj 582 107 inlet~;
#X obj 363 529 outlet~;
#X connect 0 0 7 0;
#X connect 1 0 21 0;
#X connect 2 0 6 1;
#X connect 3 0 4 0;
#X connect 3 0 2 1;
#X connect 3 0 13 0;
#X connect 4 0 6 0;
#X connect 4 0 15 0;
#X connect 6 0 0 0;
#X connect 7 0 1 0;
#X connect 8 0 12 0;
#X connect 9 0 11 1;
#X connect 10 0 11 0;
#X connect 10 0 16 0;
#X connect 11 0 8 0;
#X connect 12 0 1 0;
#X connect 13 0 14 0;
#X connect 14 0 10 0;
#X connect 14 0 9 1;
#X connect 15 0 7 1;
#X connect 16 0 12 1;
#X connect 17 0 3 0;
#X connect 18 0 4 1;
#X connect 18 0 15 1;
#X connect 18 0 16 1;
#X connect 18 0 10 1;
#X connect 19 0 1 1;
#X connect 20 0 2 0;
#X connect 20 0 9 0;
#X restore 748 460 pd grain;
#X floatatom 746 392 5 0 0 0 - - -, f 5;
#X msg 907 369 0.25;
#N canvas 396 115 450 323 grain 0;
#X obj 244 374 tabread4~ array1;
#X obj 356 473 *~;
#X obj 349 297 samphold~;
#X obj 243 116 phasor~;
#X obj 243 171 *~;
#X text 393 44 window size;
#X obj 244 341 +~;
#X obj 281 426 *~;
#X obj 477 382 tabread4~ array1;
#X obj 677 296 samphold~;
#X obj 476 188 *~;
#X obj 477 358 +~;
#X obj 539 442 *~;
#X obj 471 94 +~ 0.5;
#X obj 471 116 wrap~;
#N canvas 908 433 450 392 hann 0;
#X obj 171 37 inlet~;
#X obj 253 45 inlet;
#X obj 155 320 outlet~;
#X obj 268 156 /~;
#X obj 270 184 cos~;
#X obj 227 270 *~ 0.5;
#X obj 187 177 sig~ 1;
#X obj 232 227 -~;
#X connect 0 0 3 0;
#X connect 1 0 3 1;
#X connect 3 0 4 0;
#X connect 4 0 7 1;
#X connect 5 0 2 0;
#X connect 6 0 7 0;
#X connect 7 0 5 0;
#X restore 301 269 pd hann;
#N canvas 908 433 450 392 hann 0;
#X obj 171 37 inlet~;
#X obj 253 45 inlet;
#X obj 155 320 outlet~;
#X obj 268 156 /~;
#X obj 270 184 cos~;
#X obj 227 270 *~ 0.5;
#X obj 187 177 sig~ 1;
#X obj 232 227 -~;
#X connect 0 0 3 0;
#X connect 1 0 3 1;
#X connect 3 0 4 0;
#X connect 4 0 7 1;
#X connect 5 0 2 0;
#X connect 6 0 7 0;
#X connect 7 0 5 0;
#X restore 550 277 pd hann;
#X obj 245 62 inlet;
#X obj 353 44 inlet;
#X obj 373 387 inlet;
#X obj 582 107 inlet~;
#X obj 363 529 outlet~;
#X connect 0 0 7 0;
#X connect 1 0 21 0;
#X connect 2 0 6 1;
#X connect 3 0 4 0;
#X connect 3 0 2 1;
#X connect 3 0 13 0;
#X connect 4 0 6 0;
#X connect 4 0 15 0;
#X connect 6 0 0 0;
#X connect 7 0 1 0;
#X connect 8 0 12 0;
#X connect 9 0 11 1;
#X connect 10 0 11 0;
#X connect 10 0 16 0;
#X connect 11 0 8 0;
#X connect 12 0 1 0;
#X connect 13 0 14 0;
#X connect 14 0 10 0;
#X connect 14 0 9 1;
#X connect 15 0 7 1;
#X connect 16 0 12 1;
#X connect 17 0 3 0;
#X connect 18 0 4 1;
#X connect 18 0 15 1;
#X connect 18 0 16 1;
#X connect 18 0 10 1;
#X connect 19 0 1 1;
#X connect 20 0 2 0;
#X connect 20 0 9 0;
#X restore 647 462 pd grain;
#X floatatom 657 394 5 0 0 0 - - -, f 5;
#N canvas 396 115 450 323 grain 0;
#X obj 244 374 tabread4~ array1;
#X obj 356 473 *~;
#X obj 349 297 samphold~;
#X obj 243 116 phasor~;
#X obj 243 171 *~;
#X text 393 44 window size;
#X obj 244 341 +~;
#X obj 281 426 *~;
#X obj 477 382 tabread4~ array1;
#X obj 677 296 samphold~;
#X obj 476 188 *~;
#X obj 477 358 +~;
#X obj 539 442 *~;
#X obj 471 94 +~ 0.5;
#X obj 471 116 wrap~;
#N canvas 908 433 450 392 hann 0;
#X obj 171 37 inlet~;
#X obj 253 45 inlet;
#X obj 155 320 outlet~;
#X obj 268 156 /~;
#X obj 270 184 cos~;
#X obj 227 270 *~ 0.5;
#X obj 187 177 sig~ 1;
#X obj 232 227 -~;
#X connect 0 0 3 0;
#X connect 1 0 3 1;
#X connect 3 0 4 0;
#X connect 4 0 7 1;
#X connect 5 0 2 0;
#X connect 6 0 7 0;
#X connect 7 0 5 0;
#X restore 301 269 pd hann;
#N canvas 908 433 450 392 hann 0;
#X obj 171 37 inlet~;
#X obj 253 45 inlet;
#X obj 155 320 outlet~;
#X obj 268 156 /~;
#X obj 270 184 cos~;
#X obj 227 270 *~ 0.5;
#X obj 187 177 sig~ 1;
#X obj 232 227 -~;
#X connect 0 0 3 0;
#X connect 1 0 3 1;
#X connect 3 0 4 0;
#X connect 4 0 7 1;
#X connect 5 0 2 0;
#X connect 6 0 7 0;
#X connect 7 0 5 0;
#X restore 550 277 pd hann;
#X obj 245 62 inlet;
#X obj 353 44 inlet;
#X obj 373 387 inlet;
#X obj 582 107 inlet~;
#X obj 363 529 outlet~;
#X connect 0 0 7 0;
#X connect 1 0 21 0;
#X connect 2 0 6 1;
#X connect 3 0 4 0;
#X connect 3 0 2 1;
#X connect 3 0 13 0;
#X connect 4 0 6 0;
#X connect 4 0 15 0;
#X connect 6 0 0 0;
#X connect 7 0 1 0;
#X connect 8 0 12 0;
#X connect 9 0 11 1;
#X connect 10 0 11 0;
#X connect 10 0 16 0;
#X connect 11 0 8 0;
#X connect 12 0 1 0;
#X connect 13 0 14 0;
#X connect 14 0 10 0;
#X connect 14 0 9 1;
#X connect 15 0 7 1;
#X connect 16 0 12 1;
#X connect 17 0 3 0;
#X connect 18 0 4 1;
#X connect 18 0 15 1;
#X connect 18 0 16 1;
#X connect 18 0 10 1;
#X connect 19 0 1 1;
#X connect 20 0 2 0;
#X connect 20 0 9 0;
#X restore 543 467 pd grain;
#X floatatom 559 395 5 0 0 0 - - -, f 5;
#X connect 2 0 4 0;
#X connect 3 0 5 0;
#X connect 4 0 7 0;
#X connect 4 0 9 1;
#X connect 5 0 2 0;
#X connect 6 0 3 0;
#X connect 7 0 8 0;
#X connect 8 0 9 0;
#X connect 9 0 11 3;
#X connect 9 0 15 3;
#X connect 9 0 18 3;
#X connect 9 0 20 3;
#X connect 11 0 13 0;
#X connect 11 0 13 1;
#X connect 12 0 11 0;
#X connect 12 0 15 0;
#X connect 12 0 18 0;
#X connect 12 0 20 0;
#X connect 14 0 11 1;
#X connect 15 0 13 0;
#X connect 15 0 13 1;
#X connect 16 0 15 1;
#X connect 17 0 11 2;
#X connect 17 0 15 2;
#X connect 17 0 18 2;
#X connect 17 0 20 2;
#X connect 18 0 13 0;
#X connect 18 0 13 1;
#X connect 19 0 18 1;
#X connect 20 0 13 0;
#X connect 20 0 13 1;
#X connect 21 0 20 1;
