#N canvas 854 85 568 543.031 10;
#X obj 153 28 adc~;
#X obj 202 140 mtof;
#X floatatom 202 169 5 0 0 0 - - -, f 5;
#X obj 203 198 osc~;
#X obj 207 291 dac~;
#X obj 209 246 *~;
#X floatatom 398 214 5 0 0 0 - - -, f 5;
#X obj 203 118 + 7;
#X obj 294 140 mtof;
#X floatatom 294 169 5 0 0 0 - - -, f 5;
#X obj 295 198 osc~;
#X obj 295 118 + 4;
#X obj 364 135 mtof;
#X floatatom 364 164 5 0 0 0 - - -, f 5;
#X obj 365 193 osc~;
#X obj 156 59 fiddle~ 2048;
#X connect 0 0 15 0;
#X connect 1 0 2 0;
#X connect 2 0 3 0;
#X connect 3 0 5 0;
#X connect 5 0 4 0;
#X connect 5 0 4 1;
#X connect 6 0 5 1;
#X connect 7 0 1 0;
#X connect 8 0 9 0;
#X connect 9 0 10 0;
#X connect 10 0 5 0;
#X connect 11 0 8 0;
#X connect 12 0 13 0;
#X connect 13 0 14 0;
#X connect 14 0 5 0;
#X connect 15 2 7 0;
#X connect 15 2 11 0;
#X connect 15 2 12 0;
