#N canvas 511 0 450 893.031 10;
#X floatatom 301 372 5 0 0 0 - - -, f 5;
#X obj 103 462 expr (($f1 - $f3) / $f2) - $f1 + $f3;
#X obj 75 339 env~ 1024;
#X floatatom 76 371 5 0 0 0 - - -, f 5;
#X obj 76 408 moses;
#X floatatom 103 441 5 0 0 0 - - -, f 5;
#X floatatom 103 484 5 0 0 0 - - -, f 5;
#X obj 75 305 *~;
#X floatatom 149 279 5 0 0 0 - - -, f 5;
#X floatatom 209 362 5 0 0 0 - - -, f 5;
#X obj 103 527 dbtorms;
#X obj 103 505 expr 100 + $f1;
#X floatatom 103 549 5 0 0 0 - - -, f 5;
#X obj 38 173 readsf~;
#X obj 39 67 openpanel;
#X obj 39 37 bng 15 250 50 0 empty empty empty 17 7 0 10 -262144 -1
-1;
#X msg 39 99 open \$1 \, 1;
#X obj 32 655 dac~;
#X msg 63 549 1;
#X obj 35 599 *~;
#X connect 0 0 1 2;
#X connect 0 0 4 1;
#X connect 1 0 6 0;
#X connect 2 0 3 0;
#X connect 3 0 4 0;
#X connect 4 0 18 0;
#X connect 4 1 5 0;
#X connect 5 0 1 0;
#X connect 6 0 11 0;
#X connect 7 0 2 0;
#X connect 8 0 7 1;
#X connect 9 0 1 1;
#X connect 10 0 12 0;
#X connect 11 0 10 0;
#X connect 12 0 19 1;
#X connect 13 0 7 0;
#X connect 13 0 19 0;
#X connect 14 0 16 0;
#X connect 15 0 14 0;
#X connect 16 0 13 0;
#X connect 18 0 19 1;
#X connect 19 0 17 0;
#X connect 19 0 17 1;
