#N canvas 909 68 450 300 10;
#X obj 163 12 bng 15 250 50 0 empty empty empty 17 7 0 10 -262144 -1
-1;
#X obj 139 101 random 800;
#X obj 142 129 + 200;
#X floatatom 142 160 5 0 0 0 - - -, f 5;
#X obj 142 180 osc~;
#X obj 143 214 *~ 0.7;
#X obj 144 258 dac~;
#X msg 266 11 stop;
#X obj 262 102 random 800;
#X obj 260 132 + 200;
#X floatatom 259 159 5 0 0 0 - - -, f 5;
#X obj 260 188 osc~;
#X obj 145 52 metro 200;
#X obj 263 45 metro 250;
#X connect 0 0 12 0;
#X connect 0 0 13 0;
#X connect 1 0 2 0;
#X connect 2 0 3 0;
#X connect 3 0 4 0;
#X connect 4 0 5 0;
#X connect 5 0 6 0;
#X connect 5 0 6 1;
#X connect 7 0 12 0;
#X connect 7 0 13 0;
#X connect 8 0 9 0;
#X connect 9 0 10 0;
#X connect 10 0 11 0;
#X connect 11 0 5 0;
#X connect 12 0 1 0;
#X connect 13 0 8 0;
