#N canvas 169 119 1283 709.031 10;
#X obj 93 465 table delbuffer;
#X obj 94 94 delwrite~ delbuffer 100000;
#X obj 94 57 adc~;
#X obj 52 118 env~;
#X obj 52 140 - 100;
#X obj 52 162 vu 15 120 empty empty -1 -8 0 10 -66577 -1 1 0;
#X msg 386 479 \; pd dsp 0;
#X msg 386 518 \; pd dsp 1;
#X obj 281 230 vd~ delbuffer;
#X obj 281 206 sig~;
#X floatatom 398 87 5 0 0 0 - - -, f 5;
#X obj 282 288 *~;
#X floatatom 311 264 5 0 0 0 - - -, f 5;
#X obj 282 423 *~;
#X floatatom 314 400 5 0 0 0 - - -, f 5;
#X obj 279 456 hip~ 5;
#X obj 279 497 dac~;
#X obj 399 184 * 2;
#X floatatom 399 206 5 0 0 0 - - -, f 5;
#X obj 399 255 vd~ delbuffer;
#X obj 399 227 sig~;
#X obj 400 301 *~;
#X floatatom 428 280 5 0 0 0 - - -, f 5;
#X obj 351 337 +~;
#X floatatom 511 202 5 0 0 0 - - -, f 5;
#X obj 511 251 vd~ delbuffer;
#X obj 511 223 sig~;
#X obj 512 297 *~;
#X floatatom 540 276 5 0 0 0 - - -, f 5;
#X obj 511 180 * 3;
#X floatatom 626 200 5 0 0 0 - - -, f 5;
#X obj 626 249 vd~ delbuffer;
#X obj 626 221 sig~;
#X obj 627 295 *~;
#X floatatom 655 274 5 0 0 0 - - -, f 5;
#X obj 626 178 * 5;
#X floatatom 731 198 5 0 0 0 - - -, f 5;
#X obj 731 247 vd~ delbuffer;
#X obj 731 219 sig~;
#X obj 732 293 *~;
#X floatatom 760 272 5 0 0 0 - - -, f 5;
#X obj 731 176 * 8;
#X obj 400 49 bng 15 250 50 0 empty empty empty 17 7 0 10 -262144 -1
-1;
#X connect 2 0 1 0;
#X connect 2 0 3 0;
#X connect 2 1 1 0;
#X connect 3 0 4 0;
#X connect 4 0 5 0;
#X connect 8 0 11 0;
#X connect 9 0 8 0;
#X connect 10 0 9 0;
#X connect 10 0 17 0;
#X connect 10 0 29 0;
#X connect 10 0 35 0;
#X connect 10 0 41 0;
#X connect 11 0 13 0;
#X connect 11 0 23 0;
#X connect 12 0 11 1;
#X connect 13 0 15 0;
#X connect 14 0 13 1;
#X connect 15 0 16 0;
#X connect 15 0 16 1;
#X connect 17 0 18 0;
#X connect 18 0 20 0;
#X connect 19 0 21 0;
#X connect 20 0 19 0;
#X connect 21 0 23 0;
#X connect 22 0 21 1;
#X connect 23 0 1 0;
#X connect 24 0 26 0;
#X connect 25 0 27 0;
#X connect 26 0 25 0;
#X connect 27 0 23 0;
#X connect 28 0 27 1;
#X connect 29 0 24 0;
#X connect 30 0 32 0;
#X connect 31 0 33 0;
#X connect 32 0 31 0;
#X connect 33 0 23 0;
#X connect 34 0 33 1;
#X connect 35 0 30 0;
#X connect 36 0 38 0;
#X connect 37 0 39 0;
#X connect 38 0 37 0;
#X connect 39 0 23 0;
#X connect 40 0 39 1;
#X connect 41 0 36 0;
#X connect 42 0 10 0;
